<svg width="599" height="512" viewBox="0 0 599 512" fill="none" xmlns="http://www.w3.org/2000/svg">
<rect x="1.5" y="1.5" width="596" height="509" rx="22.5" fill="#009B5D"/>
<rect x="1.5" y="1.5" width="596" height="509" rx="22.5" stroke="black" stroke-width="3"/>
<g clip-path="url(#clip0_446_14095)">
<path fill-rule="evenodd" clip-rule="evenodd" d="M150.516 258.507C165.891 270.413 176.807 259.29 164.968 246.13L163.738 244.877C161.216 242.412 158.546 240.11 155.743 237.983C152.822 235.79 149.747 233.91 146.672 232.03C139.234 227.768 131.407 224.253 123.302 221.533C121.936 220.848 120.358 220.743 118.917 221.243C117.475 221.742 116.287 222.805 115.614 224.197C114.941 225.589 114.839 227.196 115.329 228.665C115.819 230.134 116.862 231.344 118.228 232.03C124.839 236.573 130.374 242.37 136.678 247.697C140.72 251.358 144.982 254.759 149.439 257.88L150.516 258.507Z" fill="white"/>
<path fill-rule="evenodd" clip-rule="evenodd" d="M299.499 343.89C298.99 342.436 297.934 341.247 296.564 340.586C295.195 339.925 293.623 339.846 292.196 340.365C290.769 340.884 289.603 341.96 288.954 343.356C288.305 344.751 288.227 346.352 288.737 347.807C289.592 352.377 288.632 357.107 286.066 360.956C283.499 364.804 279.538 367.457 275.053 368.33C272.341 368.405 269.652 367.814 267.212 366.607C264.584 365.581 262.18 364.038 260.139 362.063C258.777 360.622 257.494 359.105 256.295 357.52C255.593 356.413 255.074 355.195 254.758 353.917C254.134 350.936 254.57 347.827 255.988 345.143C257.064 344.047 257.833 342.95 258.755 341.853C260.031 340.03 261.651 338.485 263.522 337.31C266.903 335.052 270.857 333.85 274.899 333.85C278.942 333.85 282.896 335.052 286.277 337.31C287.257 338.135 288.506 338.555 289.776 338.486C291.046 338.417 292.244 337.866 293.133 336.94C294.023 336.014 294.538 334.781 294.578 333.486C294.618 332.191 294.18 330.928 293.349 329.947C289.571 326.001 284.837 323.142 279.627 321.656C274.417 320.171 268.915 320.112 263.675 321.487C263.643 319.046 263.28 316.621 262.599 314.28C262.077 312.814 261.012 311.616 259.632 310.942C258.252 310.268 256.667 310.173 255.219 310.677C254.495 310.922 253.826 311.314 253.253 311.829C252.68 312.343 252.215 312.97 251.885 313.672C251.555 314.374 251.367 315.136 251.332 315.913C251.298 316.691 251.417 317.467 251.683 318.197C252.529 320.844 252.529 323.696 251.683 326.343C246.948 329.11 243.021 333.112 240.305 337.937C239.692 338.004 239.074 338.004 238.46 337.937C235.795 338.052 233.145 337.458 230.773 336.213C227.814 335.513 225.036 334.178 222.624 332.297C221.238 330.921 220.001 329.398 218.934 327.753C218.128 326.687 217.551 325.459 217.243 324.15C216.747 320.848 217.3 317.47 218.821 314.511C220.343 311.551 222.753 309.165 225.699 307.7C229.065 305.403 233.025 304.177 237.077 304.177C241.128 304.177 245.088 305.403 248.454 307.7C249.433 308.656 250.744 309.176 252.099 309.147C253.454 309.117 254.743 308.541 255.68 307.543C256.618 306.546 257.129 305.21 257.1 303.829C257.071 302.448 256.505 301.136 255.527 300.18C252.409 296.811 248.56 294.234 244.287 292.656C240.015 291.078 235.439 290.542 230.927 291.093C231.475 286.72 230.837 282.277 229.082 278.247C228.572 276.792 227.516 275.604 226.147 274.943C224.777 274.282 223.206 274.202 221.779 274.722C220.351 275.241 219.185 276.317 218.536 277.712C217.888 279.108 217.81 280.709 218.319 282.163C218.849 284.464 218.862 286.857 218.356 289.163C217.85 291.469 216.839 293.629 215.398 295.48C212.405 297.103 209.66 299.161 207.249 301.59C206.364 302.046 205.437 302.413 204.482 302.687C201.827 302.687 199.204 302.099 196.794 300.963C194.166 299.938 191.763 298.394 189.722 296.42C188.317 295.019 187.031 293.499 185.878 291.877C185.083 290.764 184.556 289.476 184.34 288.117C183.703 284.765 184.229 281.291 185.828 278.291C187.426 275.29 189.998 272.948 193.104 271.667C196.485 269.409 200.439 268.206 204.482 268.206C208.524 268.206 212.478 269.409 215.859 271.667C216.853 272.26 218.014 272.492 219.154 272.324C220.294 272.156 221.343 271.597 222.13 270.741C222.917 269.884 223.395 268.78 223.485 267.61C223.575 266.44 223.271 265.274 222.624 264.303C217.768 259.892 211.82 256.918 205.425 255.703C199.029 254.488 192.429 255.078 186.339 257.41C179.924 259.525 174.468 263.917 170.964 269.787C166.537 276.097 164.565 283.857 165.429 291.563C165.971 294.862 167.063 298.041 168.658 300.963C170.839 304.449 173.419 307.657 176.345 310.52C180.821 314.443 186.141 317.234 191.874 318.667C194.22 319.4 196.649 319.822 199.1 319.92C198.792 322.469 198.792 325.047 199.1 327.597C199.67 330.861 200.816 333.993 202.483 336.84C204.564 340.445 207.154 343.718 210.17 346.553C214.629 350.412 219.884 353.197 225.545 354.7C229.199 355.717 232.987 356.14 236.769 355.953C236.844 356.368 236.844 356.792 236.769 357.207C237.296 360.532 238.444 363.723 240.152 366.607C242.236 370.162 244.827 373.383 247.839 376.163C252.236 380.115 257.514 382.912 263.214 384.31C268.843 385.939 274.806 385.939 280.434 384.31C284.553 383.014 288.376 380.891 291.676 378.066C294.977 375.241 297.689 371.77 299.653 367.86C301.347 364.096 302.21 359.999 302.184 355.858C302.157 351.717 301.241 347.632 299.499 343.89Z" fill="white"/>
<path fill-rule="evenodd" clip-rule="evenodd" d="M281.048 167.483C283.14 167.891 285.196 168.467 287.198 169.207C297.807 173.593 303.65 162.157 295.962 157.143C292.135 154.811 287.99 153.069 283.662 151.973C274.06 149.865 264.163 149.547 254.45 151.033C245.872 151.624 237.256 151.204 228.773 149.78L197.255 137.717C189.974 134.595 182.401 132.233 174.653 130.667C173.997 130.722 173.359 130.916 172.779 131.236C172.2 131.556 171.692 131.995 171.287 132.525C170.883 133.055 170.59 133.664 170.429 134.315C170.267 134.966 170.24 135.644 170.348 136.307C170.452 137.476 170.955 138.571 171.77 139.402C172.584 140.232 173.659 140.744 174.807 140.85C174.807 140.85 176.652 141.79 178.343 142.73C187.876 147.743 208.017 160.59 221.701 167.64C227.322 170.91 233.556 172.939 239.997 173.593L257.371 169.99C265.101 167.98 273.078 167.135 281.048 167.483Z" fill="white"/>
<path fill-rule="evenodd" clip-rule="evenodd" d="M482.768 128.63C481.97 127.283 480.681 126.312 479.183 125.931C477.685 125.549 476.1 125.787 474.773 126.593L447.406 142.26C442.502 145.125 437.357 147.537 432.031 149.467C428.903 150.491 425.628 150.968 422.345 150.877C417.198 150.797 412.063 150.378 406.97 149.623C402.444 148.829 397.976 147.73 393.593 146.333C387.136 144.14 380.986 141.32 374.528 139.44C369.546 137.902 364.359 137.162 359.153 137.247C355.002 137.444 350.906 138.289 347.007 139.753C341.567 141.597 336.395 144.179 331.632 147.43C327.788 149.78 292.426 183.15 289.043 186.753C283.12 192.47 277.952 198.948 273.668 206.023C270.713 211.347 269.028 217.304 268.748 223.413C268.403 226.986 268.861 230.592 270.086 233.958C271.312 237.324 273.273 240.361 275.821 242.84C279.437 245.754 283.65 247.801 288.147 248.832C292.645 249.862 297.313 249.849 301.805 248.793C309.742 247.175 317.179 243.628 323.483 238.453C329.765 233.362 335.627 227.756 341.011 221.69C348.841 225.043 357.145 227.105 365.611 227.8C369.595 228.269 373.619 228.269 377.603 227.8C381.554 227.217 385.424 226.166 389.135 224.667C397.618 221.032 405.302 215.705 411.736 209C412.298 208.624 412.779 208.134 413.148 207.561C413.518 206.988 413.768 206.344 413.883 205.668C413.998 204.993 413.976 204.3 413.818 203.634C413.661 202.967 413.371 202.341 412.966 201.793C412.582 201.238 412.095 200.764 411.532 200.401C410.969 200.037 410.341 199.79 409.684 199.673C409.028 199.557 408.355 199.573 407.704 199.722C407.054 199.871 406.438 200.149 405.893 200.54C398.821 203.596 391.372 205.651 383.753 206.65L370.377 209C367.302 209 364.535 210.097 361.46 210.253C356.65 210.646 351.817 210.646 347.007 210.253C347.157 209.689 347.157 209.094 347.007 208.53C346.548 208.047 345.999 207.662 345.391 207.4C344.784 207.138 344.131 207.002 343.471 207.002C342.811 207.002 342.158 207.138 341.55 207.4C340.943 207.662 340.393 208.047 339.935 208.53C332.674 215.877 324.86 222.635 316.565 228.74C311.606 232.218 305.921 234.471 299.96 235.32C295.834 236.007 291.601 235.232 287.967 233.127C286.521 232.322 285.368 231.066 284.676 229.543C283.984 228.02 283.79 226.31 284.123 224.667C284.768 221.081 286.129 217.668 288.121 214.64C291.95 209.175 296.387 204.181 301.343 199.757C308.877 192.08 316.718 184.09 324.713 176.413C329.745 171.694 335.144 167.398 340.857 163.567C343.829 161.522 346.966 159.74 350.236 158.24C356.292 155.532 363.08 155.034 369.455 156.83C375.758 158.24 381.755 160.59 388.058 162.47C393.568 163.868 399.168 164.863 404.817 165.447C410.348 165.758 415.891 165.758 421.422 165.447C426.357 165.301 431.236 164.349 435.875 162.627C441.976 160.023 447.841 156.877 453.402 153.227L480.001 136.15C481.326 135.503 482.354 134.359 482.87 132.958C483.386 131.556 483.349 130.005 482.768 128.63Z" fill="white"/>
<path fill-rule="evenodd" clip-rule="evenodd" d="M400.513 287.333C399.573 284.592 398.442 281.922 397.131 279.343C392.782 271.74 387.626 264.648 381.756 258.193L365.305 239.08C364.47 238.094 363.301 237.465 362.031 237.319C360.762 237.173 359.485 237.521 358.455 238.293C357.426 239.064 356.721 240.203 356.48 241.482C356.239 242.761 356.48 244.085 357.156 245.19L369.302 267.437C373.299 273.939 376.795 280.749 379.757 287.803C381.63 291.756 382.875 295.986 383.447 300.337C383.936 303.076 383.847 305.891 383.184 308.592C382.521 311.294 381.3 313.82 379.603 316.003C377.448 318.504 374.693 320.393 371.608 321.487C371.381 320.899 371.125 320.324 370.84 319.763C367.596 314.85 363.999 310.189 360.077 305.82L337.937 280.283C337.513 279.645 336.97 279.099 336.339 278.675C335.707 278.251 335 277.958 334.258 277.813C332.759 277.519 331.206 277.844 329.942 278.717C328.678 279.589 327.806 280.938 327.518 282.465C327.229 283.993 327.548 285.575 328.405 286.863L345.625 316.787C348.553 320.979 351.273 325.319 353.773 329.79C355.103 332.1 356.136 334.575 356.848 337.153C357.703 338.946 357.955 340.976 357.566 342.929C357.177 344.883 356.168 346.651 354.696 347.963C352.497 349.817 349.835 351.01 347.008 351.41C347.008 351.41 347.008 350.47 347.008 350C345.376 346.444 343.365 343.082 341.012 339.973C337.322 335.43 333.786 331.043 329.788 326.813C325.791 322.583 322.101 318.51 317.95 314.593C317.107 313.544 315.894 312.873 314.571 312.727C313.248 312.58 311.921 312.969 310.877 313.81C309.837 314.696 309.175 315.959 309.032 317.333C308.888 318.707 309.274 320.084 310.108 321.173C312.568 324.933 314.721 328.537 316.873 332.453C319.026 336.37 322.87 343.89 325.637 349.843L329.942 360.497L327.79 364.257C326.752 365.949 325.384 367.407 323.771 368.539C322.157 369.671 320.333 370.453 318.411 370.837C314.697 371.843 310.747 371.396 307.341 369.583C306.705 369.181 305.998 368.911 305.259 368.787C304.521 368.664 303.766 368.691 303.037 368.865C302.309 369.04 301.622 369.359 301.015 369.805C300.407 370.251 299.893 370.814 299.5 371.463C298.695 372.796 298.437 374.398 298.782 375.922C299.128 377.447 300.048 378.771 301.345 379.61C306.287 383.975 312.641 386.319 319.18 386.19C323.44 386.301 327.676 385.509 331.619 383.864C335.563 382.219 339.128 379.757 342.088 376.633C344.332 374.282 346.2 371.585 347.623 368.643C348.093 367.114 348.402 365.539 348.546 363.943C353.837 364.319 359.134 363.293 363.921 360.967C368.446 358.386 372.073 354.438 374.304 349.668C376.535 344.898 377.258 339.54 376.375 334.333C382.059 333.247 387.362 330.653 391.75 326.813C395.253 323.561 398.079 319.625 400.06 315.238C402.041 310.851 403.136 306.103 403.281 301.277C402.928 296.53 401.999 291.846 400.513 287.333Z" fill="white"/>
<path fill-rule="evenodd" clip-rule="evenodd" d="M484 268.063C483.821 267.322 483.499 266.623 483.053 266.009C482.608 265.394 482.047 264.875 481.404 264.482C480.761 264.089 480.048 263.829 479.307 263.718C478.565 263.607 477.809 263.646 477.082 263.833C467.703 264.93 458.632 265.243 449.56 266.81C443.387 267.821 437.315 269.394 431.418 271.51C424.638 274.116 418.186 277.534 412.199 281.693C399.592 287.02 407.125 297.36 418.964 293.913L433.263 290.937L444.025 288.273L454.634 284.827C463.09 281.85 471.393 278.56 479.849 275.113C480.577 274.93 481.262 274.602 481.866 274.148C482.469 273.694 482.978 273.123 483.364 272.468C483.749 271.813 484.004 271.087 484.114 270.331C484.223 269.575 484.184 268.804 484 268.063Z" fill="white"/>
</g>
<defs>
<clipPath id="clip0_446_14095">
<rect width="369" height="376" fill="white" transform="translate(115 68)"/>
</clipPath>
</defs>
</svg>
