<svg width="55" height="55" viewBox="0 0 55 55" fill="none" xmlns="http://www.w3.org/2000/svg">
<path fill-rule="evenodd" clip-rule="evenodd" d="M52.2518 2.03C51.0524 1.12477 49.5655 0.685101 48.0668 0.792503C47.5228 0.852636 46.9915 0.996853 46.4918 1.22C45.8288 1.5899 45.2163 2.04364 44.6693 2.57C44.5951 2.64138 44.5361 2.72699 44.4958 2.82171C44.4555 2.91643 44.4347 3.01831 44.4347 3.12125C44.4347 3.22419 44.4555 3.32608 44.4958 3.4208C44.5361 3.51552 44.5951 3.60113 44.6693 3.6725C44.7387 3.74605 44.8224 3.80464 44.9152 3.84469C45.0081 3.88473 45.1081 3.90539 45.2093 3.90539C45.3104 3.90539 45.4105 3.88473 45.5033 3.84469C45.5962 3.80464 45.6799 3.74605 45.7493 3.6725C46.1199 3.3317 46.5188 3.02308 46.9418 2.75C47.3443 2.53033 47.7894 2.39988 48.2468 2.3675C49.2982 2.36545 50.3172 2.73164 51.1268 3.4025C51.5366 3.66181 51.8816 4.01163 52.1351 4.42508C52.3887 4.83854 52.544 5.30462 52.5893 5.7875C52.5974 6.5679 52.42 7.33907 52.0718 8.0375C51.7087 8.75137 51.2467 9.41038 50.6993 9.995L47.9768 13.055C47.3018 12.335 46.6043 11.615 45.8618 10.94C45.5018 10.6025 45.1193 10.31 44.7593 9.995L44.0168 9.5L42.1268 8.3975L41.7668 8.1275L42.3743 7.25L43.9043 5.3375C43.9582 5.2639 43.996 5.17982 44.0154 5.09068C44.0348 5.00154 44.0352 4.90933 44.0168 4.82C44.0168 4.4825 43.6793 3.965 43.0043 4.37C42.3518 3.875 41.7893 3.29 41.1593 2.795C40.7762 2.50759 40.3609 2.26594 39.9218 2.075C39.5653 1.92647 39.1829 1.85 38.7968 1.85C38.4106 1.85 38.0282 1.92647 37.6718 2.075C36.9809 2.41445 36.344 2.85421 35.7818 3.38C35.0397 4.03946 34.3407 4.74591 33.6893 5.495C32.7889 6.63081 31.955 7.8178 31.1918 9.05C31.0475 9.19721 30.9667 9.39512 30.9667 9.60125C30.9667 9.80738 31.0475 10.0053 31.1918 10.1525C31.3352 10.2954 31.5293 10.3756 31.7318 10.3756C31.9342 10.3756 32.1284 10.2954 32.2718 10.1525C32.9468 9.455 33.6443 8.825 34.3193 8.195C35.3257 7.24364 36.3848 6.34973 37.4918 5.5175C37.8068 5.2475 38.1893 4.91 38.5943 4.6175C38.9993 4.325 38.9543 4.2575 39.2018 4.3025C39.4942 4.34572 39.7809 4.42118 40.0568 4.5275C40.6868 4.82 41.2943 5.2025 41.9243 5.5175L41.1368 6.44C38.0093 10.1075 31.1468 18.14 28.3343 21.785C27.6967 22.52 27.2008 23.3668 26.8718 24.2825C26.8718 24.9125 26.5793 29.435 26.6243 31.28C26.5978 31.5042 26.5978 31.7308 26.6243 31.955C26.2792 32.1654 25.9485 32.3984 25.6343 32.6525C25.4375 32.8232 25.2568 33.0114 25.0943 33.215C24.939 33.416 24.7962 33.6264 24.6668 33.845C23.4293 35.87 23.6993 36.095 23.7218 36.095C23.753 36.2671 23.8498 36.4204 23.9918 36.5225C24.1212 36.6425 24.2881 36.714 24.4643 36.725C24.4643 36.725 24.8018 36.9275 26.5793 35.3525C26.7811 35.1958 26.9625 35.0143 27.1193 34.8125C27.2907 34.6268 27.4416 34.4231 27.5693 34.205C27.7425 33.9094 27.8929 33.601 28.0193 33.2825C28.5176 33.3743 29.0285 33.3743 29.5268 33.2825C31.4705 32.832 33.3802 32.2456 35.2418 31.5275C35.613 31.3828 35.9391 31.1421 36.1868 30.83C36.7493 30.2225 37.8518 28.94 39.2243 27.2525C43.1843 22.3925 49.5068 14.27 52.0493 11.3225C52.704 10.5786 53.2495 9.74521 53.6693 8.8475C54.1664 7.91648 54.4508 6.88672 54.5018 5.8325C54.4306 5.07191 54.192 4.3365 53.803 3.67906C53.414 3.02162 52.8842 2.45846 52.2518 2.03ZM34.7918 28.6925L34.3643 29.1425C32.7197 29.8239 31.018 30.3584 29.2793 30.74V24.5975C29.4818 24.5975 27.8843 25.7 40.7318 9.32L41.0243 9.6125L42.2393 11.075C42.8278 11.7904 43.5001 12.4325 44.2418 12.9875C45.0483 13.5239 45.8902 14.005 46.7618 14.4275C44.8493 16.6775 42.6443 19.2425 40.6193 21.6725C38.1443 24.71 35.8943 27.5 34.7918 28.6925Z" fill="black"/>
<path fill-rule="evenodd" clip-rule="evenodd" d="M42.4183 39.9426L40.8433 36.3426C40.8247 36.2442 40.7851 36.151 40.7272 36.0693C40.6694 35.9876 40.5946 35.9194 40.508 35.8691C40.4215 35.8189 40.3251 35.7879 40.2255 35.7782C40.1258 35.7685 40.0253 35.7804 39.9306 35.813C39.836 35.8457 39.7495 35.8983 39.677 35.9673C39.6045 36.0363 39.5477 36.1202 39.5105 36.2131C39.4733 36.306 39.4565 36.4059 39.4613 36.5059C39.4661 36.6058 39.4924 36.7036 39.5383 36.7926L41.0908 40.6176C42.3058 43.0476 43.3408 44.2851 43.8358 45.2751C44.1538 45.7678 44.2668 46.3652 44.1508 46.9401C44.1508 47.0526 43.9258 47.0751 43.7008 47.2101C42.9158 47.6268 42.0853 47.9514 41.2258 48.1776C35.9883 49.553 30.6445 50.4863 25.2508 50.9676C19.9164 51.6423 14.531 51.8231 9.16332 51.5076C8.40386 51.4438 7.65117 51.3158 6.91332 51.1251C6.69609 51.0439 6.48547 50.9461 6.28332 50.8326C6.01962 50.3606 5.78664 49.872 5.58582 49.3701C5.36754 48.9022 5.20154 48.4118 5.09082 47.9076C4.00117 41.6956 3.30976 35.4203 3.02082 29.1201C2.55459 23.069 2.55459 16.9911 3.02082 10.9401C5.11332 10.4451 7.94832 9.97256 11.1208 9.56756C15.3733 9.02756 20.1208 8.64506 24.6208 8.48756C24.7232 8.4876 24.8246 8.4671 24.9189 8.42725C25.0132 8.38741 25.0985 8.32904 25.1699 8.2556C25.2412 8.18216 25.2971 8.09515 25.3342 7.99973C25.3713 7.9043 25.3888 7.8024 25.3858 7.70006C25.38 7.49513 25.2944 7.30055 25.1474 7.1577C25.0003 7.01485 24.8033 6.93497 24.5983 6.93506C20.0983 6.93506 15.3058 7.29506 10.9858 7.72256C7.9618 8.00567 4.95676 8.46394 1.98582 9.09506C1.7913 9.14469 1.61542 9.24981 1.4796 9.39762C1.34377 9.54543 1.25386 9.72956 1.22081 9.92756C0.462622 16.341 0.289409 22.8102 0.703315 29.2551C0.947181 35.6843 1.63128 42.0893 2.75082 48.4251C2.88388 48.9743 3.04917 49.5152 3.24582 50.0451C3.54996 50.7693 3.89553 51.4755 4.28082 52.1601C4.76997 52.722 5.37057 53.1762 6.04451 53.4938C6.71845 53.8114 7.45104 53.9855 8.19582 54.0051C12.6485 54.3856 17.1291 54.2876 21.5608 53.7126C29.0256 53.0857 36.3896 51.5751 43.4983 49.2126C45.0283 48.5601 45.7483 47.7726 45.9058 47.1651C46.0413 46.5184 45.9866 45.8463 45.7483 45.2301C45.2083 44.1276 44.0158 42.9801 42.4183 39.9426Z" fill="black"/>
<path fill-rule="evenodd" clip-rule="evenodd" d="M22.258 26.6675C22.1902 26.452 22.0438 26.2698 21.8479 26.1573C21.652 26.0448 21.4209 26.01 21.2005 26.06C21.0205 26.06 21.2005 25.88 20.413 26.06C18.6805 26.2625 15.913 26.735 13.528 27.0725C12.808 27.185 12.1105 27.275 11.4805 27.41C10.018 27.68 8.91554 27.995 8.48804 28.04C8.34413 28.0675 8.21434 28.1444 8.12098 28.2573C8.02763 28.3703 7.97656 28.5122 7.97656 28.6587C7.97656 28.8053 8.02763 28.9472 8.12098 29.0601C8.21434 29.1731 8.34413 29.2499 8.48804 29.2775C9.61134 29.4557 10.7485 29.531 11.8855 29.5025C12.898 29.5025 14.1355 29.3675 15.193 29.255C16.9648 29.0848 18.7235 28.7992 20.458 28.4C22.1005 27.86 22.393 27.1625 22.258 26.6675Z" fill="black"/>
<path fill-rule="evenodd" clip-rule="evenodd" d="M12.7638 17.9825C11.2392 18.3188 9.73649 18.7471 8.26375 19.265C8.10192 19.3076 7.96264 19.4107 7.8747 19.5531C7.78676 19.6955 7.75689 19.8662 7.79125 20.03C7.83359 20.1908 7.93776 20.3283 8.08106 20.4126C8.22436 20.4969 8.39516 20.5211 8.55625 20.48C10.5588 20.165 12.4938 20.0975 14.5188 19.94C17.3088 19.6925 20.2113 19.4 23.5188 18.9725C24.3738 18.86 25.2738 18.7925 26.1738 18.59C26.4615 18.5995 26.7493 18.5692 27.0288 18.5C27.1638 18.5 27.2088 18.3425 27.3438 18.2525C27.5631 18.2139 27.7588 18.0912 27.8891 17.9105C28.0193 17.7298 28.0739 17.5054 28.0413 17.285C27.9063 16.25 26.1063 16.25 25.9263 16.25C22.0788 16.52 18.8163 16.9925 15.7788 17.3975C14.7438 17.6225 13.7538 17.7575 12.7638 17.9825Z" fill="black"/>
<path fill-rule="evenodd" clip-rule="evenodd" d="M20.3237 36.1399C20.0312 36.1399 19.6712 36.1399 19.2662 36.2524L16.3412 36.7024C14.8112 36.9499 13.1912 37.1974 11.9537 37.5124C11.2678 37.6856 10.5918 37.896 9.92866 38.1424H9.79366C9.6836 38.1092 9.56621 38.1092 9.45616 38.1424C9.45616 38.1424 9.16366 39.2449 10.0862 39.3349C10.4687 39.3349 11.2112 39.4699 12.3362 39.4699C13.8418 39.4214 15.3439 39.2937 16.8362 39.0874C17.9387 38.9524 19.0862 38.7949 19.8287 38.6374C20.1488 38.586 20.4647 38.5108 20.7737 38.4124C21.1585 38.2522 21.5154 38.032 21.8312 37.7599C22.0373 37.6497 22.1924 37.4636 22.2638 37.2411C22.3352 37.0185 22.3172 36.7769 22.2137 36.5674C22.0112 36.4999 21.9212 36.1849 20.3237 36.1399Z" fill="black"/>
</svg>
