<svg width="55" height="55" viewBox="0 0 55 55" fill="none" xmlns="http://www.w3.org/2000/svg">
<g clip-path="url(#clip0_733_4138)">
<path fill-rule="evenodd" clip-rule="evenodd" d="M54.4992 48.1775C54.1842 45.9275 51.3042 43.4974 49.8867 42.5075L48.3792 41.45C46.8492 40.3025 47.4117 39.7849 46.5117 39.7849C46.5117 37.5349 46.8042 35.4424 46.8042 33.4849V30.785C46.8042 29.9074 46.6242 28.985 46.4892 28.085C46.1742 26.1274 45.7467 24.1474 45.2067 21.8524C45.1733 21.623 45.0504 21.4161 44.8649 21.277C44.6794 21.1378 44.4464 21.0778 44.2167 21.11C44.1039 21.1263 43.9954 21.1651 43.8977 21.2241C43.8001 21.283 43.7152 21.3609 43.6481 21.4532C43.581 21.5455 43.533 21.6502 43.507 21.7613C43.4811 21.8723 43.4776 21.9875 43.4967 22.1C43.6542 24.485 43.6542 26.5999 43.7442 28.5124C43.7442 29.9524 43.7442 31.3475 43.9917 32.7649C44.2392 35.0149 44.6667 37.2649 45.0717 39.8299H40.7292C38.0292 39.7174 35.3067 39.4249 32.6067 39.2449C30.7617 39.1324 28.9392 39.065 27.1167 39.02C24.8667 39.02 22.7292 39.0199 20.5467 39.2674C17.2842 39.5149 14.0667 39.9424 10.8042 40.3474C10.6014 40.3474 10.4068 40.428 10.2633 40.5715C10.1198 40.715 10.0392 40.9096 10.0392 41.1124C10.0392 41.3153 10.1198 41.5099 10.2633 41.6534C10.4068 41.7969 10.6014 41.8774 10.8042 41.8774H17.2842C20.5017 41.8774 23.6967 41.8774 26.9367 42.0574C28.8717 42.0574 30.8067 42.17 32.7642 42.215C34.7217 42.26 36.6792 42.215 38.6367 42.215C40.8867 42.215 43.2717 42.035 45.5442 41.81L47.2317 43.1375L48.7392 44.3074C49.5551 44.8971 50.3089 45.568 50.9892 46.31L41.6967 45.5H32.5167C28.0167 45.5 23.3592 45.77 18.7917 45.77C15.0117 45.905 11.1867 46.4224 7.38425 46.5574H3.33425C3.74692 45.5288 4.30786 44.5662 4.99925 43.7L6.52925 42.3274L8.77925 40.8425C8.95827 40.747 9.09203 40.5843 9.1511 40.3902C9.21018 40.1961 9.18972 39.9865 9.09425 39.8074C9.01017 39.6749 8.88735 39.5714 8.74245 39.511C8.59755 39.4506 8.43758 39.4363 8.28425 39.4699L8.59925 35.3299C8.75675 33.2824 9.00425 31.2575 9.16175 29.1874C9.31925 27.1174 9.49925 25.0925 9.49925 23C9.25175 17.735 9.04925 20.21 11.7492 19.76L17.0817 18.7925C17.2907 18.7278 17.4679 18.5875 17.5788 18.399C17.6896 18.2105 17.7261 17.9874 17.681 17.7734C17.636 17.5594 17.5127 17.3699 17.3352 17.2421C17.1578 17.1143 16.939 17.0574 16.7217 17.0824L11.5242 17.5325C11.1192 17.5325 9.27425 17.375 8.37425 17.5325C8.14037 17.5592 7.91426 17.6328 7.7094 17.7488C7.50453 17.8647 7.32509 18.0207 7.18175 18.2074C6.93446 18.6271 6.78094 19.0953 6.73175 19.5799C6.57425 20.6599 6.73175 22.3474 6.73175 22.9549C6.73175 25.0249 6.50675 27.0949 6.48425 29.1424C6.46175 31.1899 6.48425 33.2824 6.64175 35.3524L6.84425 40.3699L5.74175 41.045L3.91925 42.53C2.42361 43.9748 1.31028 45.7685 0.679247 47.75C0.394097 48.5521 0.378213 49.4254 0.634003 50.2375C0.889794 51.0495 1.40331 51.756 2.09675 52.25C2.85028 52.7477 3.70202 53.0777 4.59425 53.2175C5.74191 53.3771 6.90122 53.4374 8.05925 53.3975L15.4392 53.7125C21.8742 53.7125 28.3092 54.095 34.7217 54.1175C37.5117 54.1175 40.3017 54.1175 43.0917 53.825L47.7492 53.1049L50.6292 52.3624L52.5417 51.5525C53.2072 51.302 53.7657 50.8291 54.1224 50.2141C54.4792 49.599 54.6123 48.8795 54.4992 48.1775ZM51.5292 49.5499L49.9542 50.1349L47.3217 50.7199L43.0017 51.125H37.5342C30.1767 51.125 22.8192 50.6749 15.4617 50.7425H8.03675C7.00371 50.8326 5.96479 50.8326 4.93175 50.7425C4.37149 50.6717 3.82956 50.4962 3.33425 50.2249C2.9875 49.9784 2.73285 49.6233 2.6106 49.2158C2.48834 48.8083 2.50546 48.3716 2.65925 47.975C2.65925 47.975 2.65925 47.8625 2.65925 47.8175C4.2101 48.0429 5.77272 48.1781 7.33925 48.2224C11.1192 48.3574 14.9667 48.2224 18.7242 48.2224H27.9492C32.4492 48.1099 37.1067 47.795 41.6742 47.6375H51.9567H52.0917C52.2192 47.7912 52.3061 47.9746 52.3443 48.1706C52.3824 48.3667 52.3708 48.5692 52.3103 48.7596C52.2498 48.95 52.1425 49.1221 51.9981 49.2602C51.8538 49.3983 51.6771 49.4979 51.4842 49.5499H51.5292Z" fill="black"/>
<path fill-rule="evenodd" clip-rule="evenodd" d="M21.6719 16.2499C22.4549 16.9755 23.3064 17.6236 24.2144 18.1849C24.3012 18.2627 24.4027 18.3224 24.5128 18.3606C24.6229 18.3988 24.7396 18.4147 24.8559 18.4073C24.9723 18.3999 25.086 18.3694 25.1904 18.3175C25.2948 18.2657 25.3878 18.1936 25.4641 18.1054C25.5403 18.0172 25.5982 17.9147 25.6344 17.8039C25.6706 17.6931 25.6843 17.5761 25.6748 17.46C25.6653 17.3438 25.6327 17.2306 25.579 17.1272C25.5253 17.0237 25.4515 16.932 25.3619 16.8574C24.755 16.3168 24.1908 15.73 23.6744 15.1024C23.4576 14.8291 23.3178 14.5028 23.2694 14.1574L23.6519 13.5724C24.0586 12.9514 24.6059 12.4349 25.2494 12.0649C25.9954 11.6215 26.8085 11.3024 27.6569 11.1199L28.6244 10.9624C28.6244 10.9624 28.4444 11.1874 28.3769 11.3224C27.3533 13.06 26.5949 14.9407 26.1269 16.9024C25.9225 17.6581 25.9187 18.4541 26.116 19.2117C26.3133 19.9693 26.7048 20.6624 27.2519 21.2224L28.9844 22.9999C29.5569 23.5861 30.2786 24.0049 31.0716 24.2111C31.8646 24.4173 32.6989 24.403 33.4844 24.1699C35.4621 23.6423 37.3503 22.8233 39.0869 21.7399C39.2669 21.7399 39.4244 21.4924 39.6044 21.4024L39.4019 22.5499C39.2194 23.3983 38.9003 24.2114 38.4569 24.9574C38.0787 25.6336 37.5469 26.2116 36.9044 26.6449L36.3194 27.0274C35.974 26.979 35.6477 26.8392 35.3744 26.6224C34.752 26.1001 34.1657 25.5363 33.6194 24.9349C33.4659 24.7637 33.2513 24.6595 33.0218 24.6449C32.7923 24.6303 32.5662 24.7064 32.3922 24.8568C32.2183 25.0072 32.1103 25.2199 32.0915 25.4491C32.0728 25.6783 32.1447 25.9057 32.2919 26.0824C32.8532 26.9904 33.5013 27.8419 34.2269 28.6249C34.6689 29.0513 35.2102 29.3606 35.8019 29.5249C36.2171 29.615 36.6468 29.615 37.0619 29.5249C37.5708 29.4219 38.058 29.2315 38.5019 28.9624C39.5561 28.3354 40.4195 27.4331 40.9994 26.3524C41.3905 25.2793 41.5738 24.1415 41.5394 22.9999L41.3594 20.7499C41.3484 20.6151 41.3484 20.4797 41.3594 20.3449C42.8443 19.3055 44.1903 18.0806 45.3644 16.6999C47.1813 14.4742 48.4112 11.8285 48.9419 9.00488C49.1124 7.76572 49.1124 6.50905 48.9419 5.26988C48.9079 4.14316 48.4867 3.06255 47.7494 2.20988C46.9542 1.52278 45.9617 1.1053 44.9144 1.01738C43.6808 0.929548 42.441 0.997584 41.2244 1.21988C38.4323 1.83995 35.8358 3.13818 33.6644 4.99988C32.2749 6.20554 31.0427 7.58136 29.9969 9.09488H29.7494L27.4994 8.82488C26.2965 8.81715 25.1037 9.04652 23.9894 9.49988C22.8586 10.0734 21.9201 10.9649 21.2894 12.0649C21.0329 12.4965 20.8503 12.968 20.7494 13.4599C20.659 13.8674 20.659 14.2898 20.7494 14.6974C20.9317 15.2797 21.2477 15.8113 21.6719 16.2499ZM35.1719 6.88988C37.0839 5.41949 39.3221 4.43159 41.6969 4.00988C42.4842 3.87401 43.2836 3.82122 44.0819 3.85238C44.6345 3.8063 45.1871 3.9405 45.6569 4.23488C45.9722 4.72154 46.1148 5.29997 46.0619 5.87738C46.1159 6.69652 46.0781 7.51912 45.9494 8.32988C45.6169 10.7123 44.6882 12.9721 43.2494 14.8999C41.755 16.8714 39.909 18.5496 37.8044 19.8499C36.2953 20.8868 34.6429 21.6979 32.8994 22.2574C32.4474 22.4221 31.9601 22.4652 31.4862 22.3823C31.0124 22.2993 30.5686 22.0933 30.1994 21.7849L28.3769 20.0524C28.0531 19.6647 27.8368 19.1987 27.7499 18.7011C27.6631 18.2035 27.7086 17.6918 27.8819 17.2174C28.4462 15.4746 29.2732 13.8281 30.3344 12.3349C31.6349 10.2572 33.296 8.42854 35.2394 6.93488L35.1719 6.88988Z" fill="black"/>
<path fill-rule="evenodd" clip-rule="evenodd" d="M18.8594 24.9798C19.0723 25.1346 19.3075 25.256 19.5569 25.3398L19.3769 25.5873C18.4921 26.6571 17.7369 27.8277 17.1269 29.0748C16.8148 29.8697 16.7521 30.7408 16.9469 31.5723C17.022 31.8034 17.1534 32.0122 17.3294 32.1798C17.4993 32.353 17.7073 32.484 17.9369 32.5623C18.857 32.856 19.85 32.8242 20.7494 32.4723C21.9897 31.8626 23.1529 31.1073 24.2144 30.2223L24.4619 30.0423C24.5499 30.297 24.671 30.5391 24.8219 30.7623C25.0554 31.2338 25.4614 31.5973 25.9558 31.7775C26.4501 31.9576 26.9948 31.9405 27.4769 31.7298C28.4305 31.2318 29.1556 30.3858 29.5019 29.3673C29.7468 28.6441 29.8387 27.8779 29.7719 27.1173C29.6911 26.1417 29.5483 25.1722 29.3444 24.2148C29.3311 24.1005 29.2943 23.9903 29.2362 23.891C29.1782 23.7917 29.1002 23.7055 29.0072 23.6379C28.9142 23.5702 28.8081 23.5226 28.6958 23.498C28.5834 23.4733 28.4672 23.4723 28.3544 23.4948C28.2417 23.5086 28.1329 23.5448 28.0344 23.6011C27.9358 23.6574 27.8495 23.7328 27.7803 23.8229C27.7112 23.9129 27.6607 24.0159 27.6318 24.1256C27.6029 24.2354 27.5961 24.3499 27.6119 24.4623C27.7378 25.3494 27.8054 26.2438 27.8144 27.1398C27.8181 27.64 27.7265 28.1364 27.5444 28.6023C27.5444 28.8048 27.0494 28.9848 26.8244 29.1873L26.7119 27.7023C26.6072 27.3355 26.3612 27.0252 26.0279 26.8396C25.6947 26.654 25.3014 26.6082 24.9344 26.7123L24.3044 26.9373L22.6619 27.8823C22.1219 28.2198 21.3344 28.7823 20.4119 29.2323H20.2994C20.7126 28.4561 21.1708 27.7048 21.6719 26.9823L22.5944 25.2948C22.6856 25.0987 22.7609 24.8955 22.8194 24.6873C22.83 24.6202 22.83 24.5519 22.8194 24.4848C22.8658 24.3112 22.8745 24.1297 22.845 23.9525C22.8154 23.7753 22.7483 23.6064 22.6482 23.4572C22.548 23.3081 22.4171 23.1821 22.2643 23.0876C22.1114 22.9932 21.9401 22.9326 21.7619 22.9098L20.1419 22.9998C20.1419 22.9998 20.1419 22.8873 20.0069 22.9998C19.8719 23.1123 20.0069 23.2248 20.0069 23.2023C20.0069 23.1798 20.6144 22.4598 20.9519 22.3248C21.4228 22.1276 21.9266 22.0208 22.4369 22.0098C23.3324 22.0114 24.2268 22.0716 25.1144 22.1898C25.215 22.2057 25.3178 22.2014 25.4167 22.177C25.5156 22.1527 25.6086 22.1088 25.6904 22.0481C25.7721 21.9873 25.8409 21.9108 25.8927 21.8231C25.9444 21.7354 25.9782 21.6382 25.9919 21.5373C26.0187 21.4237 26.0198 21.3055 25.9953 21.1914C25.9707 21.0773 25.9211 20.9701 25.8501 20.8775C25.779 20.7849 25.6883 20.7092 25.5844 20.656C25.4805 20.6028 25.3661 20.5734 25.2494 20.5698C24.298 20.3691 23.3367 20.2189 22.3694 20.1198C21.6105 20.059 20.847 20.143 20.1194 20.3673C19.1561 20.7359 18.3575 21.4387 17.8694 22.3473C17.667 22.8295 17.6568 23.3709 17.8409 23.8604C18.025 24.3499 18.3894 24.7504 18.8594 24.9798Z" fill="black"/>
</g>
<defs>
<clipPath id="clip0_733_4138">
<rect width="54" height="54" fill="white" transform="translate(0.5 0.5)"/>
</clipPath>
</defs>
</svg>
