<svg width="55" height="55" viewBox="0 0 55 55" fill="none" xmlns="http://www.w3.org/2000/svg">
<g clip-path="url(#clip0_733_4117)">
<path d="M54.5012 25.2498C54.507 20.5736 54.244 15.9009 53.7137 11.2548C53.5229 9.82329 52.9475 8.47029 52.0487 7.33981C51.0477 6.20338 49.6435 5.5013 48.1337 5.38231C46.1762 5.15731 43.6337 4.99981 40.5737 4.88731C37.1537 4.77481 33.2612 4.72981 29.3237 4.77481C29.1462 4.80561 28.9852 4.89811 28.8691 5.036C28.7531 5.1739 28.6895 5.34834 28.6895 5.52856C28.6895 5.70879 28.7531 5.88323 28.8691 6.02112C28.9852 6.15902 29.1462 6.25152 29.3237 6.28231C33.2387 6.28231 37.1312 6.55231 40.5737 6.79981C43.4987 7.00231 46.0412 7.27231 47.9537 7.56481C48.8941 7.65758 49.7596 8.11864 50.3612 8.84731C50.9468 9.7034 51.2676 10.7128 51.2837 11.7498C51.6437 14.2698 51.7787 17.9373 51.8912 21.9873C51.8912 24.2373 52.0037 26.8023 52.0712 29.2548C52.2062 36.0048 52.3187 42.5523 52.4312 46.2423C52.4825 47.4595 52.1942 48.667 51.5987 49.7298C51.3572 50.237 50.9871 50.672 50.5253 50.9918C50.0634 51.3115 49.5259 51.5048 48.9662 51.5523C48.8111 51.581 48.671 51.6631 48.5701 51.7843C48.4692 51.9056 48.414 52.0583 48.414 52.2161C48.414 52.3738 48.4692 52.5265 48.5701 52.6478C48.671 52.769 48.8111 52.8511 48.9662 52.8798C49.6085 52.8551 50.237 52.6866 50.8056 52.3867C51.3741 52.0869 51.8681 51.6634 52.2512 51.1473C53.3936 49.7324 54.0204 47.9708 54.0287 46.1523C54.1637 41.7423 54.5012 33.2148 54.5012 25.2498Z" fill="black"/>
<path d="M44.7356 51.9123C38.5031 51.9123 28.2431 52.1373 19.9856 51.9123C16.4839 51.9518 12.9829 51.7865 9.50058 51.4173C8.32589 51.2622 7.18527 50.9124 6.12558 50.3823C5.68473 50.1964 5.28946 49.9171 4.96705 49.5636C4.64463 49.2101 4.40275 48.7908 4.25808 48.3348C3.85308 46.0848 3.49308 42.0348 3.15558 37.4223C2.90808 33.9123 2.75058 30.0648 2.52558 26.3748C2.25604 21.497 2.3915 16.6052 2.93058 11.7498C3.01996 11.2088 3.22737 10.6941 3.53808 10.2423C3.87786 9.76396 4.28741 9.33925 4.75308 8.9823C4.83545 8.94059 4.90804 8.88186 4.96603 8.81001C5.02402 8.73817 5.06611 8.65483 5.0895 8.5655C5.1129 8.47618 5.11707 8.38291 5.10174 8.29186C5.08641 8.2008 5.05193 8.11404 5.00058 8.0373C4.89369 7.90047 4.73818 7.81009 4.56638 7.78495C4.39458 7.75981 4.21969 7.80184 4.07808 7.9023C3.43902 8.33964 2.87647 8.87938 2.41308 9.4998C1.95415 10.1034 1.63868 10.8036 1.49058 11.5473C0.617728 17.6939 0.286455 23.9053 0.500577 30.1098C0.546048 36.3469 0.966809 42.5757 1.76058 48.7623C1.90002 49.4545 2.18209 50.1101 2.58884 50.6873C2.99559 51.2645 3.5181 51.7507 4.12308 52.1148C5.64018 53.0741 7.35629 53.6744 9.14058 53.8698C12.7212 54.2275 16.3211 54.3553 19.9181 54.2523C28.2431 54.2523 38.5031 53.5998 44.6681 53.4198C44.8652 53.4086 45.0509 53.3237 45.1885 53.182C45.326 53.0404 45.4053 52.8522 45.4106 52.6548C45.4113 52.469 45.3425 52.2897 45.2175 52.1523C45.0925 52.0148 44.9206 51.9292 44.7356 51.9123Z" fill="black"/>
<path d="M7.25067 28.6699C7.28608 29.0173 7.3946 29.3533 7.56911 29.6557C7.74361 29.9582 7.98015 30.2203 8.26317 30.4249C9.05067 30.8749 10.1757 30.6499 11.0532 29.3224C11.9699 27.7219 12.7237 26.0334 13.3032 24.2824C14.1351 26.1429 15.2013 27.8895 16.4757 29.4799C17.6907 30.8074 19.0407 31.2574 20.1432 30.6049C20.7094 30.1886 21.0892 29.5663 21.2007 28.8724C21.4535 27.2277 21.5289 25.5607 21.4257 23.8999C21.4257 20.4799 20.1432 13.9999 21.0882 9.83739C21.5157 7.92489 22.4157 6.52989 24.3282 6.50739C24.5057 6.47659 24.6667 6.3841 24.7828 6.2462C24.8988 6.1083 24.9625 5.93386 24.9625 5.75364C24.9625 5.57341 24.8988 5.39898 24.7828 5.26108C24.6667 5.12318 24.5057 5.03068 24.3282 4.99989C21.6057 4.99989 20.1432 6.75489 19.4682 9.49989C18.4107 13.7524 19.4682 20.4574 19.4682 23.9674V26.8699C19.4682 27.6799 19.4682 29.1199 19.0857 28.8274C18.7032 28.5349 19.0857 28.8274 19.1982 28.8274C19.3107 28.8274 18.9957 28.6924 18.8382 28.5799C18.2915 28.0563 17.8218 27.4578 17.4432 26.8024C16.6333 25.584 15.9043 24.3137 15.2607 22.9999C15.0807 22.6399 14.8332 21.8299 14.5632 21.3349C14.3771 21.0403 14.1319 20.7874 13.8432 20.5924C13.5521 20.432 13.2121 20.3847 12.8883 20.4594C12.5644 20.5342 12.2796 20.7257 12.0882 20.9974C11.7043 21.594 11.3802 22.2271 11.1207 22.8874C10.9632 23.2699 10.5357 25.1374 10.0632 26.4874C9.88317 25.6324 9.61317 24.7999 9.59067 24.5074C9.18162 21.0961 9.03119 17.6588 9.14067 14.2249C9.20495 11.9511 9.49895 9.68957 10.0182 7.47489C10.2292 6.25713 10.7139 5.10315 11.4357 4.09989C12.1844 3.23626 13.2435 2.70268 14.3832 2.61489C16.7907 2.28597 19.2346 2.33151 21.6282 2.74989C23.1737 2.96583 24.6462 3.54405 25.9257 4.43739C25.9922 4.49205 26.0688 4.53309 26.1511 4.55815C26.2334 4.58321 26.3199 4.5918 26.4056 4.58345C26.4912 4.57509 26.5744 4.54994 26.6503 4.50944C26.7263 4.46894 26.7935 4.41387 26.8482 4.34739C26.9028 4.28091 26.9439 4.20431 26.9689 4.12197C26.994 4.03963 27.0026 3.95316 26.9942 3.8675C26.9859 3.78184 26.9607 3.69866 26.9202 3.62272C26.8797 3.54677 26.8247 3.47955 26.7582 3.42489C25.3456 2.29898 23.6757 1.54132 21.8982 1.21989C19.3654 0.71586 16.7704 0.602045 14.2032 0.882389C12.6027 0.968913 11.1001 1.67984 10.0182 2.86239C9.05623 4.02867 8.37153 5.39807 8.01567 6.86739C7.38739 9.19962 6.99541 11.5892 6.84567 13.9999C6.64668 17.5559 6.72944 21.122 7.09317 24.6649C7.0693 26.0018 7.12188 27.339 7.25067 28.6699Z" fill="black"/>
<path d="M48.853 15.5974C48.8531 15.3984 48.7756 15.2071 48.637 15.0643C48.4984 14.9214 48.3095 14.8383 48.1105 14.8324C47.1181 14.8274 46.1286 14.9407 45.163 15.1699C43.0705 15.6199 40.888 16.4749 38.9755 16.9249C38.1638 17.1841 37.3374 17.3944 36.5005 17.5549C36.1113 17.6693 35.6973 17.6693 35.308 17.5549C34.8758 17.3858 34.5064 17.0872 34.2505 16.6999C33.9116 16.2946 33.6244 15.8487 33.3955 15.3724C33.238 15.1249 33.0805 14.3149 32.833 13.8649C32.6928 13.5147 32.4393 13.2216 32.113 13.0324C30.538 12.2674 30.313 14.0449 28.603 15.6874C28.3187 15.9905 27.9837 16.2418 27.613 16.4299C27.5179 16.4742 27.4142 16.4971 27.3093 16.4971C27.2044 16.4971 27.1007 16.4742 27.0055 16.4299C25.3405 15.7099 26.1505 14.5399 25.2055 14.4724C24.688 14.4724 24.4855 14.6749 24.373 15.0574C24.4672 15.6847 24.6976 16.2837 25.048 16.8124C25.4659 17.34 26.0066 17.7572 26.623 18.0274C27.1576 18.2403 27.7535 18.2403 28.288 18.0274C28.8664 17.8172 29.4061 17.5131 29.8855 17.1274C30.3172 16.7823 30.7233 16.4063 31.1005 16.0024C31.0741 16.1588 31.0741 16.3185 31.1005 16.4749C31.4613 17.2897 31.9388 18.0477 32.518 18.7249C32.9711 19.2173 33.5232 19.6083 34.138 19.8724C34.9427 20.1718 35.8131 20.2495 36.658 20.0974C37.6241 19.8684 38.5718 19.5676 39.493 19.1974C41.3605 18.5899 43.453 17.5324 45.5005 16.9474C46.3367 16.6028 47.214 16.3684 48.1105 16.2499C48.2928 16.2513 48.4692 16.1855 48.6062 16.0652C48.7431 15.9448 48.831 15.7783 48.853 15.5974Z" fill="black"/>
<path d="M23.1363 29.5249C22.7763 29.9299 22.9563 30.2449 23.2713 30.4924C24.2589 30.7384 25.2693 30.8817 26.2863 30.9199L31.0113 31.1449C32.1363 31.1449 33.2613 31.1449 34.4088 30.9649C35.5563 30.7849 36.9513 30.6274 38.2338 30.4249C45.8838 29.2324 44.4888 29.8399 45.9063 30.2899C46.0915 30.3315 46.2836 30.3315 46.4688 30.2899C46.5672 30.293 46.6651 30.2759 46.7566 30.2397C46.8481 30.2035 46.9312 30.1489 47.0008 30.0793C47.0704 30.0098 47.125 29.9267 47.1612 29.8352C47.1974 29.7437 47.2144 29.6457 47.2113 29.5474C47.2113 29.3504 47.1331 29.1616 46.9938 29.0223C46.8546 28.8831 46.6657 28.8049 46.4688 28.8049C45.3438 28.1524 44.5788 27.2749 37.4688 27.9949C36.1638 28.1074 34.8588 28.2874 33.5538 28.4449C32.6988 28.4449 31.8663 28.6699 30.9888 28.7374L26.4888 29.1424C23.4513 29.2999 23.4063 29.1199 23.1363 29.5249Z" fill="black"/>
<path d="M28.108 39.7175L20.863 40.505L12.718 41.2025C11.1808 40.877 9.58605 40.9467 8.08303 41.405C8.01094 41.4654 7.95331 41.5413 7.91437 41.6269C7.87544 41.7126 7.85618 41.8059 7.85803 41.9C7.84796 42.0094 7.86775 42.1195 7.91529 42.2185C7.96284 42.3176 8.03636 42.4019 8.12803 42.4625C8.3433 42.6011 8.59211 42.6789 8.84803 42.6875C9.79303 42.6875 12.2005 42.8225 12.718 42.845H20.863C21.6125 42.8862 22.3636 42.8862 23.113 42.845C24.778 42.6875 26.443 42.3725 28.108 42.305C47.6155 41.09 46.8055 40.415 46.9405 40.235C47.0106 40.1659 47.0662 40.0836 47.1042 39.9928C47.1422 39.902 47.1617 39.8046 47.1617 39.7062C47.1617 39.6078 47.1422 39.5104 47.1042 39.4196C47.0662 39.3289 47.0106 39.2466 46.9405 39.1775C46.468 38.75 48.268 39.29 28.108 39.7175Z" fill="black"/>
</g>
<defs>
<clipPath id="clip0_733_4117">
<rect width="54" height="54" fill="white" transform="translate(0.5 0.5)"/>
</clipPath>
</defs>
</svg>
