<svg width="415" height="362" viewBox="0 0 415 362" fill="none" xmlns="http://www.w3.org/2000/svg">
<rect width="414.161" height="361.659" rx="24" fill="#3978D3"/>
<path d="M28.3768 89.1765C28.3768 75.4165 31.0168 64.5765 36.2968 56.6565C41.6568 48.7365 50.2568 44.7765 62.0968 44.7765C73.9368 44.7765 82.4968 48.7365 87.7768 56.6565C93.1368 64.5765 95.8168 75.4165 95.8168 89.1765C95.8168 103.097 93.1368 114.017 87.7768 121.937C82.4968 129.857 73.9368 133.817 62.0968 133.817C50.2568 133.817 41.6568 129.857 36.2968 121.937C31.0168 114.017 28.3768 103.097 28.3768 89.1765ZM75.6568 89.1765C75.6568 81.0965 74.7768 74.8965 73.0168 70.5765C71.2568 66.1765 67.6168 63.9765 62.0968 63.9765C56.5768 63.9765 52.9368 66.1765 51.1768 70.5765C49.4168 74.8965 48.5368 81.0965 48.5368 89.1765C48.5368 94.6165 48.8568 99.1365 49.4968 102.737C50.1368 106.257 51.4168 109.137 53.3368 111.377C55.3368 113.537 58.2568 114.617 62.0968 114.617C65.9368 114.617 68.8168 113.537 70.7368 111.377C72.7368 109.137 74.0568 106.257 74.6968 102.737C75.3368 99.1365 75.6568 94.6165 75.6568 89.1765ZM31.9093 191.297C32.2293 182.737 35.0293 176.137 40.3093 171.497C45.5893 166.857 52.7493 164.537 61.7893 164.537C67.7893 164.537 72.9093 165.577 77.1493 167.657C81.4693 169.737 84.7093 172.577 86.8693 176.177C89.1093 179.777 90.2293 183.817 90.2293 188.297C90.2293 193.577 88.9093 197.897 86.2693 201.257C83.6293 204.537 80.5493 206.777 77.0293 207.977V208.457C81.5893 209.977 85.1893 212.497 87.8293 216.017C90.4693 219.537 91.7893 224.057 91.7893 229.577C91.7893 234.537 90.6293 238.937 88.3093 242.777C86.0693 246.537 82.7493 249.497 78.3493 251.657C74.0293 253.817 68.8693 254.897 62.8693 254.897C53.2693 254.897 45.5893 252.537 39.8293 247.817C34.1493 243.097 31.1493 235.977 30.8293 226.457H50.7493C50.8293 229.977 51.8293 232.777 53.7493 234.857C55.6693 236.857 58.4693 237.857 62.1493 237.857C65.2693 237.857 67.6693 236.977 69.3493 235.217C71.1093 233.377 71.9893 230.977 71.9893 228.017C71.9893 224.177 70.7493 221.417 68.2693 219.737C65.8693 217.977 61.9893 217.097 56.6293 217.097H52.7893V200.417H56.6293C60.7093 200.417 63.9893 199.737 66.4693 198.377C69.0293 196.937 70.3093 194.417 70.3093 190.817C70.3093 187.937 69.5093 185.697 67.9093 184.097C66.3093 182.497 64.1093 181.697 61.3093 181.697C58.2693 181.697 55.9893 182.617 54.4693 184.457C53.0293 186.297 52.1893 188.577 51.9493 191.297H31.9093Z" fill="white" fill-opacity="0.7"/>
</svg>
