<svg width="415" height="362" viewBox="0 0 415 362" fill="none" xmlns="http://www.w3.org/2000/svg">
<rect width="414.161" height="361.659" rx="24" fill="#0C8228"/>
<path d="M28.3768 89.1765C28.3768 75.4165 31.0168 64.5765 36.2968 56.6565C41.6568 48.7365 50.2568 44.7765 62.0968 44.7765C73.9368 44.7765 82.4968 48.7365 87.7768 56.6565C93.1368 64.5765 95.8168 75.4165 95.8168 89.1765C95.8168 103.097 93.1368 114.017 87.7768 121.937C82.4968 129.857 73.9368 133.817 62.0968 133.817C50.2568 133.817 41.6568 129.857 36.2968 121.937C31.0168 114.017 28.3768 103.097 28.3768 89.1765ZM75.6568 89.1765C75.6568 81.0965 74.7768 74.8965 73.0168 70.5765C71.2568 66.1765 67.6168 63.9765 62.0968 63.9765C56.5768 63.9765 52.9368 66.1765 51.1768 70.5765C49.4168 74.8965 48.5368 81.0965 48.5368 89.1765C48.5368 94.6165 48.8568 99.1365 49.4968 102.737C50.1368 106.257 51.4168 109.137 53.3368 111.377C55.3368 113.537 58.2568 114.617 62.0968 114.617C65.9368 114.617 68.8168 113.537 70.7368 111.377C72.7368 109.137 74.0568 106.257 74.6968 102.737C75.3368 99.1365 75.6568 94.6165 75.6568 89.1765ZM42.7988 185.657V166.577H76.0388V254.177H54.6788V185.657H42.7988Z" fill="white" fill-opacity="0.7"/>
</svg>
