<svg width="415" height="362" viewBox="0 0 415 362" fill="none" xmlns="http://www.w3.org/2000/svg">
<rect width="414.161" height="361.659" rx="24" fill="#F7B900"/>
<path d="M28.3768 89.1765C28.3768 75.4165 31.0168 64.5765 36.2968 56.6565C41.6568 48.7365 50.2568 44.7765 62.0968 44.7765C73.9368 44.7765 82.4968 48.7365 87.7768 56.6565C93.1368 64.5765 95.8168 75.4165 95.8168 89.1765C95.8168 103.097 93.1368 114.017 87.7768 121.937C82.4968 129.857 73.9368 133.817 62.0968 133.817C50.2568 133.817 41.6568 129.857 36.2968 121.937C31.0168 114.017 28.3768 103.097 28.3768 89.1765ZM75.6568 89.1765C75.6568 81.0965 74.7768 74.8965 73.0168 70.5765C71.2568 66.1765 67.6168 63.9765 62.0968 63.9765C56.5768 63.9765 52.9368 66.1765 51.1768 70.5765C49.4168 74.8965 48.5368 81.0965 48.5368 89.1765C48.5368 94.6165 48.8568 99.1365 49.4968 102.737C50.1368 106.257 51.4168 109.137 53.3368 111.377C55.3368 113.537 58.2568 114.617 62.0968 114.617C65.9368 114.617 68.8168 113.537 70.7368 111.377C72.7368 109.137 74.0568 106.257 74.6968 102.737C75.3368 99.1365 75.6568 94.6165 75.6568 89.1765ZM32.5201 237.737C35.2401 235.577 36.4801 234.577 36.2401 234.737C44.0801 228.257 50.2401 222.937 54.7201 218.777C59.2801 214.617 63.1201 210.257 66.2401 205.697C69.3601 201.137 70.9201 196.697 70.9201 192.377C70.9201 189.097 70.1601 186.537 68.6401 184.697C67.1201 182.857 64.8401 181.937 61.8001 181.937C58.7601 181.937 56.3601 183.097 54.6001 185.417C52.9201 187.657 52.0801 190.857 52.0801 195.017H32.2801C32.4401 188.217 33.8801 182.537 36.6001 177.977C39.4001 173.417 43.0401 170.057 47.5201 167.897C52.0801 165.737 57.1201 164.657 62.6401 164.657C72.1601 164.657 79.3201 167.097 84.1201 171.977C89.0001 176.857 91.4401 183.217 91.4401 191.057C91.4401 199.617 88.5201 207.577 82.6801 214.937C76.8401 222.217 69.4001 229.337 60.3601 236.297H92.7601V252.977H32.5201V237.737Z" fill="white" fill-opacity="0.7"/>
</svg>
