<svg width="136" height="104" viewBox="0 0 136 104" fill="none" xmlns="http://www.w3.org/2000/svg">
<path d="M19.5443 95.8222C17.7472 95.6367 15.9535 95.4838 14.1699 95.379C12.7085 95.2934 11.3563 96.3764 10.6902 97.9363C10.1889 99.11 10.1594 101.037 11.5939 101.298C17.6307 102.393 23.7763 102.961 29.8112 103.305C30.9792 103.371 32.031 102.666 32.7365 101.583C33.1971 100.876 33.9163 99.1733 33.146 98.2523C31.8991 96.7615 30.8719 94.8364 29.7814 93.1581C28.721 91.5264 27.6608 89.8944 26.6007 88.2627C24.4283 84.9192 22.2418 81.6029 20 78.3321C18.91 76.742 16.3122 79.5742 17.2124 81.2882C19.0693 84.8246 20.9735 88.3122 22.9043 91.789C23.1043 92.1494 23.3045 92.5097 23.5045 92.87C18.6111 90.1613 14.3309 85.3004 11.192 79.7143C6.78858 71.8781 4.99223 62.292 6.1919 53.3838C6.82477 48.6838 8.12879 44.545 10.0197 40.63C10.8254 38.9617 11.8124 37.2882 13.0383 35.5518C13.3244 35.1464 13.6187 34.751 13.9151 34.3574C14.3725 33.7495 14.0913 34.1362 13.9883 34.2623C14.1423 34.0744 14.2962 33.8864 14.4523 33.7015C15.1544 32.8697 15.8863 32.0771 16.6459 31.3291C16.8147 31.163 16.9846 30.9987 17.1558 30.8368C17.1276 30.8634 17.4473 30.5702 17.5986 30.4294C17.7026 30.3396 17.8398 30.2205 17.8727 30.1928C18.0503 30.0442 18.2293 29.8985 18.4092 29.7537C19.3603 28.9884 20.3365 28.2725 21.3431 27.6189C23.0966 26.4803 25.0439 25.5396 27.077 24.7704C31.1882 23.2149 35.6073 22.5499 40.0082 22.6098C43.6538 22.6593 47.382 23.1801 51.0361 24.1665C49.2096 28.8984 48.6 34.9145 50.4483 40.1627C52.3874 45.669 56.5681 49.0088 61.1006 48.9462C66.1373 48.8768 70.2968 44.0182 70.9606 37.7966C71.5018 32.7242 69.5025 27.244 66.2469 23.8349C64.3044 21.8009 62.1224 20.3653 59.8396 19.3011C60.87 18.2001 61.9926 17.223 63.1004 16.3471C68.9689 11.7069 75.3357 9.00507 82.5247 7.9014C96.8503 5.70216 112.532 10.6063 125.262 21.9708C126.787 23.333 128.334 24.6514 129.801 26.1251C131.084 27.4149 132.718 26.7023 133.749 25.5414C134.474 24.7257 136.076 22.1945 134.862 20.7578C121.825 5.32815 103.208 -1.15403 86.7497 0.475541C78.2539 1.31675 70.002 4.43653 62.8655 9.7162C59.9369 11.8828 57.1365 14.4044 54.8062 17.4993C54.1234 17.3122 53.4408 17.1408 52.761 16.9833C42.3513 14.5743 31.4934 15.4659 22.2666 20.704C13.9163 25.4447 7.05819 33.7162 3.4301 44.4901C0.192787 54.1039 -0.399632 65.5431 3.42371 75.9182C6.68905 84.7809 12.4325 92.2479 19.5443 95.8222ZM64.6645 41.5231C64.6405 41.6054 64.6415 41.5876 64.6598 41.5266C64.5867 41.581 64.5134 41.6342 64.44 41.6872C64.4456 41.6825 64.4523 41.6762 64.4593 41.6702C64.4993 41.642 64.5635 41.5963 64.6598 41.5266C64.6661 41.5057 64.6748 41.4792 64.6847 41.4511C64.6767 41.4805 64.67 41.5046 64.6645 41.5231C64.6853 41.5081 64.705 41.4929 64.7285 41.4756C64.7071 41.491 64.6859 41.507 64.6645 41.5231ZM55.9857 25.8803C58.8897 27.2201 61.701 29.2984 63.4977 32.6173C64.3887 34.2633 65.0001 36.4179 65.0799 38.2039C65.1017 38.6955 65.0937 39.1814 65.0693 39.6667C65.0674 39.7026 65.0408 39.9852 65.0424 40.0235C65.0136 40.2002 64.9795 40.3769 64.9423 40.5461C64.9129 40.6796 64.8758 40.8101 64.8413 40.9419C64.8155 41.0048 64.7505 41.199 64.7356 41.2575C64.7277 41.289 64.7206 41.3163 64.714 41.3426C64.6373 41.4469 64.5312 41.5669 64.4646 41.6425C64.3926 41.6187 63.6826 41.9529 64.1659 41.8321C63.2328 42.0656 62.8862 42.0209 61.9346 41.7886C60.5007 41.4383 58.9644 40.4042 57.8723 38.9538C55.1454 35.3325 54.8473 30.0406 55.9857 25.8803Z" fill="#282828"/>
</svg>
