<svg width="326" height="312" viewBox="0 0 326 312" fill="none" xmlns="http://www.w3.org/2000/svg">
<g clip-path="url(#clip0_44_1348)">
<path d="M300.735 82.6672C289.715 65.1944 275.974 49.4211 259.985 35.8876C237.868 16.805 210.023 4.8376 180.387 1.67756C151.099 -0.654325 121.682 4.39519 95.0833 16.3205C72.3883 26.1575 52.4292 40.9374 36.8108 59.4717C21.5003 77.8391 10.6453 99.2141 5.02582 122.06C4.88536 122.614 4.86214 123.188 4.95752 123.75C5.05289 124.312 5.26495 124.851 5.58125 125.333C5.89755 125.816 6.31172 126.234 6.79947 126.562C7.28722 126.89 7.83874 127.122 8.42166 127.244C9.55339 127.439 10.7203 127.211 11.681 126.608C12.6417 126.005 13.3228 125.073 13.5833 124.004C19.3873 102.538 30.2071 82.6029 45.2325 65.6917C59.8712 48.8217 78.4907 35.4997 99.5658 26.8167C124.459 16.4465 151.725 12.3418 178.757 14.8951C205.453 18.1353 230.427 29.2325 250.205 46.643C264.783 59.2721 277.366 73.8506 287.559 89.9238C298.018 105.523 304.357 123.309 306.033 141.757C307.804 162.33 305.265 183.034 298.562 202.661C291.727 222.12 279.245 239.33 262.566 252.292C251.725 261.012 239.025 267.379 225.348 270.952C204.393 276.695 182.758 279.874 160.963 280.411C159.906 280.478 158.917 280.935 158.208 281.685C157.498 282.434 157.122 283.419 157.159 284.428C157.159 284.933 157.265 285.432 157.471 285.897C157.678 286.362 157.98 286.782 158.361 287.133C158.741 287.483 159.191 287.757 159.685 287.938C160.179 288.119 160.706 288.204 161.234 288.186C183.821 288.075 206.309 285.334 228.2 280.023C243.044 276.362 256.923 269.786 268.95 260.715C287.868 246.91 302.283 228.259 310.515 206.938C318.331 185.831 321.7 163.461 320.431 141.109C318.969 120.386 312.206 100.32 300.735 82.6672Z" fill="black"/>
<path d="M216.247 207.197C225.47 203.39 233.182 196.878 238.263 188.606C243.344 180.333 245.528 170.732 244.5 161.195C244.114 159.015 243.15 156.966 241.7 155.242C240.249 153.519 238.361 152.177 236.214 151.346C230.062 149.755 223.622 149.445 217.333 150.439C200.762 151.346 175.904 155.363 155.665 157.437C150.232 158.085 145.07 158.473 140.587 158.732C139.651 158.898 138.805 159.37 138.196 160.069C137.587 160.767 137.253 161.647 137.253 162.555C137.253 163.464 137.587 164.343 138.196 165.042C138.805 165.74 139.651 166.213 140.587 166.378L217.469 164.045H228.743C229.189 170.562 227.526 177.052 223.979 182.637C220.432 188.223 215.172 192.634 208.912 195.275C202.8 199.247 195.864 201.916 188.574 203.101C181.285 204.287 173.813 203.96 166.667 202.143C161.095 199.905 155.953 196.795 151.454 192.942C146.902 189.347 143.12 184.947 140.316 179.984C140.066 179.456 139.71 178.981 139.268 178.584C138.826 178.188 138.306 177.879 137.738 177.674C137.17 177.47 136.566 177.374 135.96 177.392C135.353 177.41 134.756 177.543 134.203 177.781C133.655 178.006 133.159 178.333 132.745 178.743C132.331 179.153 132.007 179.638 131.792 180.169C131.577 180.7 131.475 181.267 131.493 181.836C131.51 182.405 131.647 182.965 131.894 183.483C134.762 189.922 138.967 195.74 144.255 200.588C149.397 205.527 155.307 209.679 161.777 212.898C170.731 215.865 180.264 216.892 189.686 215.906C199.107 214.92 208.181 211.945 216.247 207.197Z" fill="black"/>
<path d="M113.013 143.441C116.036 144.236 119.227 144.236 122.25 143.441C124.648 142.641 126.8 141.286 128.514 139.496C130.227 137.707 131.448 135.54 132.067 133.19C132.687 130.839 132.685 128.379 132.062 126.029C131.439 123.68 130.215 121.515 128.498 119.728C114.915 103.659 87.7483 130.354 104.863 142.016C107.402 143.164 110.213 143.656 113.013 143.441Z" fill="black"/>
<path d="M260.121 135.149C263.173 135.668 266.315 135.4 269.222 134.371C271.644 133.58 273.821 132.222 275.553 130.423C277.285 128.624 278.518 126.44 279.139 124.07C279.76 121.7 279.75 119.219 279.109 116.854C278.468 114.489 277.217 112.314 275.47 110.528C261.887 94.589 234.72 121.283 251.835 132.946C254.332 134.393 257.199 135.155 260.121 135.149Z" fill="black"/>
<path d="M130.672 261.492C129.282 258.847 127.17 256.609 124.559 255.013C127.225 250.82 128.237 245.858 127.412 241.018C126.845 236.437 125.271 232.021 122.793 228.059C120.96 225.471 118.548 223.302 115.73 221.71C116.302 220.476 116.669 219.164 116.817 217.822C117.54 213.576 117.177 209.225 115.758 205.141C114.339 201.057 111.906 197.361 108.667 194.368C101.681 190.083 93.4615 187.998 85.1675 188.407C74.9838 188.122 64.8634 190.026 55.5558 193.979C56.3683 182.32 52.9642 170.748 45.9117 161.194C33.6867 148.236 11.41 159.51 9.10083 178.818C8.86548 186.743 9.91938 194.655 12.225 202.272C16.0283 215.231 15.3492 214.583 18.745 219.507C15.7564 222.61 13.2414 226.1 11.2742 229.874C9.91583 234.279 7.47083 239.463 9.64416 242.832C11.8175 246.201 13.7192 245.812 16.0283 243.609C18.3375 241.407 17.2508 237.908 17.93 235.834C18.939 232.12 20.9532 228.724 23.7708 225.986C25.9442 223.265 27.5742 223.135 30.155 220.803C55.2842 197.867 92.91 195.275 99.7017 204.216C111.247 219.248 83.945 220.932 60.31 234.927C59.7905 235.069 59.3087 235.315 58.8966 235.649C58.4846 235.983 58.1518 236.396 57.9205 236.862C57.6891 237.328 57.5645 237.836 57.5549 238.351C57.5454 238.867 57.6511 239.378 57.865 239.852C58.0318 240.336 58.3 240.783 58.6535 241.165C59.0069 241.547 59.4382 241.857 59.921 242.075C60.4039 242.293 60.9282 242.415 61.4621 242.434C61.996 242.453 62.5283 242.368 63.0267 242.184C68.5958 241.407 73.4858 241.407 78.24 240.759C91.8233 238.556 95.2192 232.206 107.58 234.15C109.695 235.795 111.149 238.087 111.694 240.638C112.238 243.189 111.841 245.842 110.568 248.145C104.321 252.226 97.3127 255.129 89.9217 256.697C84.9046 258.984 80.0496 261.582 75.3875 264.472C74.8716 264.605 74.3894 264.837 73.9703 265.154C73.5513 265.47 73.2041 265.865 72.95 266.313C72.6958 266.762 72.54 267.255 72.492 267.763C72.444 268.271 72.5049 268.782 72.6708 269.267C72.8103 269.759 73.0533 270.219 73.385 270.619C73.7167 271.019 74.1302 271.35 74.6004 271.592C75.0706 271.835 75.5875 271.983 76.1198 272.029C76.6521 272.075 77.1886 272.017 77.6967 271.859C82.6006 271.819 87.4984 271.516 92.3667 270.952C94.494 270.676 96.5872 270.199 98.615 269.526C103.56 266.729 109.425 265.805 115.051 266.934C115.497 267.015 115.921 267.183 116.295 267.428C116.67 267.674 116.986 267.991 117.224 268.36C117.633 269.36 117.633 270.47 117.224 271.47C116.507 274.764 114.864 277.811 112.47 280.282C109.725 283.252 106.625 285.905 103.233 288.186C94.1502 294.155 83.6415 297.854 72.6708 298.942C61.7945 300.468 50.6878 298.89 40.75 294.406C33.4972 290.746 27.7533 284.855 24.45 277.69C20.7764 270.102 18.6116 261.929 18.0658 253.587C18.0487 253.014 17.911 252.45 17.6609 251.929C17.4108 251.408 17.0533 250.94 16.6098 250.553C16.1663 250.166 15.6458 249.868 15.0792 249.677C14.5126 249.486 13.9115 249.406 13.3117 249.441C12.7048 249.474 12.1108 249.621 11.5636 249.873C11.0165 250.126 10.5269 250.479 10.1231 250.912C9.71928 251.346 9.40911 251.851 9.21037 252.399C9.01164 252.947 8.92826 253.527 8.965 254.106C9.13645 265.589 12.1624 276.87 17.7942 287.02C21.9179 294.086 27.9738 299.953 35.3167 303.995C47.126 310.202 60.5911 312.952 74.0292 311.9C87.5255 310.718 100.479 306.256 111.655 298.942C117.234 295.391 122.185 291.017 126.325 285.983C129.411 282.172 131.548 277.741 132.573 273.025C133.239 269.085 132.573 265.046 130.672 261.492ZM24.5858 213.287L23.3633 200.329C23.3633 190.61 21.5975 177.911 28.3892 171.95C29.7475 171.95 34.5017 164.304 40.3425 174.801C43.5685 180.543 45.5546 186.844 46.1833 193.331C46.178 193.986 46.3352 194.632 46.6421 195.218C46.949 195.804 47.3969 196.312 47.9492 196.7C39.3148 201.052 31.4346 206.646 24.5858 213.287Z" fill="black"/>
</g>
<defs>
<clipPath id="clip0_44_1348">
<rect width="326" height="311" fill="white" transform="translate(0 0.899902)"/>
</clipPath>
</defs>
</svg>
