<svg width="60" height="61" viewBox="0 0 60 61" fill="none" xmlns="http://www.w3.org/2000/svg">
<g clip-path="url(#clip0_44_1367)">
<path d="M42.875 46.9748C45.1756 44.8065 46.836 42.0477 47.675 38.9998C48.1247 37.6889 48.2111 36.2808 47.925 34.9248C47.8544 34.7167 47.7397 34.5262 47.5887 34.3666C47.4377 34.2069 47.2539 34.0818 47.05 33.9998C46.925 33.9998 42.45 33.7748 36.75 33.8498C33.65 33.8498 30.175 33.9748 26.9 34.1248C22.7 34.3248 18.825 34.6248 16.375 34.8748C15.302 34.9428 14.2427 35.153 13.225 35.4998C12.8193 35.8116 12.5504 36.2687 12.475 36.7748C12.3546 37.8643 12.4828 38.967 12.85 39.9998C13.6412 42.7453 15.072 45.2642 17.025 47.3498C17.116 47.4272 17.2306 47.4713 17.35 47.4748C17.35 47.4748 17.35 47.6498 17.35 47.7248C17.262 50.9578 18.4058 54.1035 20.55 56.5248C21.6404 57.7604 22.9784 58.7528 24.4772 59.4376C25.9761 60.1224 27.6022 60.4843 29.25 60.4998C32.5498 60.0956 35.6379 58.6608 38.075 56.3998C39.4039 55.319 40.4733 53.9538 41.2045 52.4049C41.9357 50.8559 42.3101 49.1626 42.3 47.4498C42.3117 47.3752 42.3117 47.2993 42.3 47.2248C42.516 47.2153 42.7208 47.1263 42.875 46.9748ZM36.175 54.2998C34.2802 56.2269 31.8347 57.5196 29.175 57.9998C27.856 58.1009 26.5314 57.8963 25.3043 57.402C24.0772 56.9077 22.9807 56.137 22.1 55.1498C20.5374 52.88 19.4178 50.3353 18.8 47.6498C18.8576 47.0991 19.0652 46.5748 19.4002 46.1339C19.7353 45.6931 20.1849 45.3527 20.7 45.1498C21.7394 44.5584 22.9052 44.2241 24.1 44.1748C24.7421 44.2271 25.3691 44.3966 25.95 44.6748C26.8673 45.0722 27.7605 45.523 28.625 46.0248C28.9046 46.1945 29.2232 46.2892 29.55 46.2998C29.925 46.2998 31.575 45.2998 33.45 44.7498C34.1273 44.5314 34.8404 44.4465 35.55 44.4998C36.4611 44.6555 37.3197 45.0333 38.05 45.5998C38.3894 45.809 38.6792 46.0896 38.8993 46.422C39.1195 46.7544 39.2647 47.1307 39.325 47.5248C39.3397 48.8177 39.0644 50.0975 38.5192 51.2699C37.9741 52.4424 37.1731 53.4777 36.175 54.2998ZM40.525 44.0248C39.215 42.8456 37.5561 42.1258 35.8 41.9748C34.737 41.9217 33.6742 42.0832 32.675 42.4498C31.6274 42.8563 30.6155 43.3497 29.65 43.9248H29.45C28.5499 43.4695 27.6233 43.0688 26.675 42.7248C25.8197 42.4049 24.9132 42.2439 24 42.2498C22.1809 42.4252 20.448 43.1097 19 44.2248C18.459 44.6446 18.0012 45.1618 17.65 45.7498C16.8609 44.7472 16.2054 43.6463 15.7 42.4748C15.0731 41.0849 14.652 39.6111 14.45 38.0998C14.469 37.8118 14.5193 37.5268 14.6 37.2498C15.825 37.1248 18.4 37.0998 21.575 37.0248L33.375 36.6748C38.375 36.4998 42.975 36.2498 45.15 36.1748H45.55C45.6319 36.4507 45.674 36.7369 45.675 37.0248C45.4697 38.6688 44.9879 40.2663 44.25 41.7498C43.5847 43.1553 42.689 44.4397 41.6 45.5498C41.3248 44.9876 40.962 44.4729 40.525 44.0248Z" fill="black"/>
<path d="M2.9 33C2.477 29.5966 2.64616 26.1457 3.4 22.8C4.10297 19.471 5.50003 16.3276 7.5 13.575C9.60462 10.6739 12.2228 8.18277 15.225 6.225C18.2361 4.26102 21.6568 3.01246 25.225 2.575C26.975 2.375 28.725 2.2 30.5 2.175C31.6531 2.16758 32.8055 2.23439 33.95 2.375C34.1333 2.38365 34.3134 2.32482 34.4562 2.20964C34.599 2.09447 34.6946 1.93094 34.725 1.75C34.7428 1.65281 34.7405 1.55301 34.7183 1.45673C34.6961 1.36046 34.6544 1.26973 34.5959 1.19013C34.5374 1.11053 34.4632 1.04374 34.3779 0.993845C34.2926 0.943952 34.1981 0.912017 34.1 0.9C32.886 0.680139 31.6579 0.546472 30.425 0.5C28.6 0.5 26.8 0.5 24.975 0.675C21.0704 0.933451 17.283 2.11592 13.925 4.125C10.5946 6.14119 7.66956 8.76101 5.3 11.85C3.01454 14.8828 1.42676 18.3828 0.650002 22.1C-0.116672 25.7693 -0.209854 29.5474 0.375002 33.25C1.4329 40.6572 5.14675 47.4274 10.825 52.3C10.9843 52.4588 11.2001 52.5479 11.425 52.5479C11.6499 52.5479 11.8657 52.4588 12.025 52.3C12.1838 52.1407 12.2729 51.9249 12.2729 51.7C12.2729 51.4751 12.1838 51.2593 12.025 51.1C6.89601 46.3676 3.65447 39.9378 2.9 33Z" fill="black"/>
<path d="M59.75 24.975C59.4626 22.4198 58.8924 19.9044 58.05 17.475C56.3097 12.9913 53.3263 9.09717 49.45 6.24996C45.6302 3.47192 41.1469 1.74756 36.45 1.24996C36.2292 1.22785 36.0083 1.29043 35.832 1.42503C35.6556 1.55962 35.5369 1.7562 35.5 1.97496C35.4861 2.08671 35.4945 2.20012 35.5247 2.30859C35.555 2.41705 35.6065 2.51843 35.6763 2.60682C35.7461 2.69521 35.8327 2.76885 35.9312 2.82346C36.0297 2.87808 36.1381 2.91258 36.25 2.92496C40.5777 3.61852 44.6471 5.43765 48.05 8.19996C51.4365 10.8788 53.9866 14.4699 55.4 18.55C56.1486 20.7717 56.6516 23.0687 56.9 25.4C57.198 27.7375 57.2733 30.0981 57.125 32.45C56.9813 34.7935 56.5187 37.1065 55.75 39.325C55.0108 41.579 54.0036 43.7361 52.75 45.75C51.1909 48.2505 49.1516 50.4173 46.75 52.125C46.6673 52.1803 46.5964 52.2514 46.5415 52.3344C46.4866 52.4173 46.4488 52.5104 46.4301 52.6081C46.4115 52.7058 46.4125 52.8062 46.4331 52.9036C46.4537 53.0009 46.4934 53.0931 46.55 53.175C46.6659 53.3367 46.8395 53.4477 47.035 53.4849C47.2305 53.5222 47.4328 53.4828 47.6 53.375C48.9116 52.5218 50.1492 51.5601 51.3 50.5C52.4519 49.4074 53.4905 48.2013 54.4 46.9C55.8614 44.8131 57.0777 42.565 58.025 40.2C58.9748 37.7941 59.597 35.2715 59.875 32.7C60.0905 30.1272 60.0486 27.5394 59.75 24.975Z" fill="black"/>
<path d="M20 16.9998C19.6377 16.831 19.238 16.7584 18.8395 16.7891C18.441 16.8197 18.0572 16.9526 17.725 17.1748C16.4 17.9998 15.5 20.1748 17.1 21.2498C17.4269 21.4392 17.7886 21.561 18.1634 21.6081C18.5383 21.6552 18.9188 21.6266 19.2824 21.524C19.6461 21.4215 19.9854 21.247 20.2804 21.011C20.5755 20.7749 20.8201 20.4821 21 20.1498C21.2451 19.593 21.2788 18.9659 21.0947 18.386C20.9106 17.8062 20.5214 17.3133 20 16.9998Z" fill="black"/>
<path d="M21.125 11.5752C20.2603 11.3062 19.354 11.1961 18.45 11.2502C17.5926 11.3315 16.7509 11.5335 15.95 11.8502C14.093 12.5566 12.5085 13.8348 11.425 15.5002C10.4188 17.1329 9.82666 18.9866 9.7 20.9002C9.61688 22.1117 9.77842 23.3275 10.175 24.4752C10.6158 25.6945 11.4293 26.7441 12.5 27.4752C13.0494 27.8272 13.6474 28.0967 14.275 28.2752C17.011 28.9745 19.9011 28.7549 22.5 27.6502C24.351 26.8577 25.8581 25.4304 26.75 23.6252C27.7077 21.5921 27.877 19.2759 27.225 17.1252C26.8799 15.6961 26.1142 14.4034 25.0267 13.414C23.9393 12.4247 22.5802 11.7841 21.125 11.5752ZM24.65 22.5002C23.9241 23.7498 22.7828 24.7053 21.425 25.2002C20.0218 25.7274 18.5181 25.9325 17.025 25.8002C16.4751 25.7517 15.931 25.6512 15.4 25.5002C14.9494 25.4081 14.5181 25.2389 14.125 25.0002C13.53 24.5885 13.0762 24.0037 12.825 23.3252C12.5239 22.5275 12.3878 21.677 12.425 20.8252C12.4171 19.3304 12.7686 17.8556 13.45 16.5252C14.1747 15.2226 15.2834 14.175 16.625 13.5252C17.2537 13.2286 17.9317 13.0507 18.625 13.0002C19.3015 12.8635 19.9985 12.8635 20.675 13.0002C20.9075 13.0487 21.1283 13.1421 21.325 13.2752C23.2 14.6002 24.475 13.9752 25.275 17.4752C25.711 19.1689 25.4876 20.9649 24.65 22.5002Z" fill="black"/>
<path d="M33.375 23.3498C33.4718 23.3679 33.5713 23.3667 33.6677 23.3463C33.7641 23.3259 33.8555 23.2868 33.9368 23.2311C34.0181 23.1753 34.0875 23.1042 34.1413 23.0216C34.195 22.939 34.232 22.8466 34.25 22.7498C34.69 21.2441 35.4682 19.8589 36.525 18.6998C36.9626 18.215 37.4995 17.8301 38.0991 17.5713C38.6987 17.3125 39.347 17.1858 40 17.1998C40.7777 17.1489 41.5572 17.2654 42.2861 17.5414C43.0149 17.8174 43.6761 18.2465 44.225 18.7998C45.416 20.0092 46.1871 21.5691 46.425 23.2498C46.4314 23.3615 46.4597 23.4708 46.5084 23.5715C46.5572 23.6722 46.6253 23.7623 46.7089 23.8366C46.7925 23.9109 46.89 23.968 46.9957 24.0046C47.1014 24.0412 47.2133 24.0565 47.325 24.0498C47.546 24.0369 47.7533 23.9382 47.9027 23.7748C48.0521 23.6114 48.1319 23.3961 48.125 23.1748C48.1385 20.9847 47.3968 18.857 46.025 17.1498C45.2899 16.2669 44.3684 15.558 43.3266 15.0738C42.2849 14.5897 41.1487 14.3424 40 14.3498C38.2842 14.3795 36.6459 15.0689 35.425 16.2748C33.9055 18.0151 32.9546 20.1785 32.7 22.4748C32.6823 22.5772 32.6861 22.6821 32.7111 22.7829C32.736 22.8838 32.7817 22.9783 32.8452 23.0606C32.9087 23.1429 32.9885 23.2111 33.0797 23.2608C33.1709 23.3106 33.2715 23.3409 33.375 23.3498Z" fill="black"/>
</g>
<defs>
<clipPath id="clip0_44_1367">
<rect width="60" height="60" fill="white" transform="translate(0 0.5)"/>
</clipPath>
</defs>
</svg>
