<svg width="80" height="79" viewBox="0 0 80 79" fill="none" xmlns="http://www.w3.org/2000/svg">
<rect x="1.34497" y="0.89502" width="77.31" height="77.31" rx="15.5" stroke="#E8E8E8"/>
<g clip-path="url(#clip0_44_1034)">
<path fill-rule="evenodd" clip-rule="evenodd" d="M57.9167 51.9117C57.6334 51.3284 57.3334 50.7617 57.0334 50.2451C56.7244 49.7042 56.3615 49.1961 55.9501 48.7284C55.607 48.3796 55.2068 48.0921 54.7667 47.8784C53.9224 47.4666 52.9583 47.372 52.0501 47.6117C52.0563 47.5007 52.0563 47.3894 52.0501 47.2784C52.0501 47.1284 51.9667 46.9784 51.9001 46.8284C51.8208 46.6942 51.7317 46.566 51.6334 46.4451C53.6915 45.3172 55.3941 43.6376 56.5501 41.5951C57.5222 39.8959 57.9742 37.9487 57.85 35.9951C57.6984 34.0447 57.0438 32.167 55.9501 30.5451C55.9086 30.4727 55.8533 30.4093 55.7872 30.3583C55.7212 30.3074 55.6457 30.2701 55.5652 30.2484C55.4847 30.2267 55.4006 30.2211 55.318 30.232C55.2353 30.2429 55.1556 30.27 55.0834 30.3117C54.9389 30.4014 54.8353 30.5441 54.7948 30.7092C54.7543 30.8743 54.7801 31.0487 54.8667 31.1951C55.746 32.6498 56.2553 34.2979 56.35 35.9951C56.3562 37.6739 55.8883 39.3204 55.0001 40.7451C53.9846 42.337 52.6158 43.6733 50.9999 44.6503C49.3841 45.6273 47.5648 46.2187 45.6834 46.3784C43.8439 46.6736 41.9613 46.5448 40.1791 46.0018C38.397 45.4588 36.7624 44.5159 35.4001 43.2451C34.1219 42.0258 33.1965 40.4842 32.7213 38.7829C32.2461 37.0816 32.2387 35.2835 32.7001 33.5784C33.1615 31.8357 33.9969 30.2144 35.1481 28.8271C36.2994 27.4398 37.7389 26.3199 39.3667 25.5451C41.2023 24.689 43.2347 24.3435 45.2501 24.5451C47.2644 24.724 49.2042 25.3935 50.9001 26.4951C51.0227 26.5503 51.1611 26.56 51.2903 26.5226C51.4195 26.4851 51.5312 26.4029 51.6053 26.2907C51.6795 26.1784 51.7113 26.0435 51.6951 25.9099C51.6788 25.7764 51.6156 25.6529 51.5167 25.5617C49.6931 24.2956 47.5875 23.4945 45.3834 23.2284C43.1192 22.9314 40.8168 23.248 38.7167 24.1451C36.8296 24.9657 35.1447 26.189 33.7801 27.7292C32.4154 29.2695 31.404 31.0895 30.8167 33.0617C30.2225 35.1057 30.1988 37.2732 30.7482 39.3297C31.2975 41.3861 32.399 43.2531 33.9334 44.7284C35.5367 46.2088 37.4582 47.3016 39.5502 47.9228C41.6421 48.544 43.8486 48.6771 46.0001 48.3117C47.2893 48.1037 48.5485 47.74 49.7501 47.2284V47.3117C49.7981 47.4667 49.8594 47.6173 49.9334 47.7617C50.0123 47.9106 50.1073 48.0503 50.2167 48.1784C50.3198 48.287 50.4312 48.3873 50.5501 48.4784C50.1291 48.8645 49.7921 49.333 49.5599 49.8548C49.3276 50.3766 49.2052 50.9406 49.2001 51.5117C49.2189 52.1371 49.3724 52.7511 49.6501 53.3117C50.0002 53.9947 50.4072 54.647 50.8667 55.2617L53.4667 59.2117C53.5441 59.3377 53.6683 59.4278 53.8121 59.4622C53.9559 59.4966 54.1074 59.4724 54.2334 59.3951C54.3594 59.3177 54.4495 59.1935 54.4838 59.0497C54.5182 58.9059 54.4941 58.7544 54.4167 58.6284L52.3001 54.4284C51.9589 53.8409 51.6636 53.228 51.4167 52.5951C51.2995 52.2638 51.2486 51.9127 51.2667 51.5617C51.2783 51.2388 51.3604 50.9222 51.5073 50.6343C51.6541 50.3464 51.8621 50.0941 52.1167 49.8951C52.38 49.719 52.685 49.6155 53.001 49.595C53.3171 49.5745 53.6329 49.6378 53.9167 49.7784C54.2197 49.8945 54.493 50.0767 54.7167 50.3117C54.9936 50.6002 55.2446 50.9126 55.4667 51.2451C55.9501 51.9117 56.3667 52.5951 56.7667 53.2784C57.4001 54.3451 58.0001 55.4451 58.6167 56.5117C58.698 56.6603 58.834 56.7713 58.9959 56.8211C59.1577 56.871 59.3327 56.8556 59.4834 56.7784C59.558 56.7415 59.6243 56.6898 59.6784 56.6266C59.7325 56.5633 59.7733 56.4898 59.7982 56.4103C59.8231 56.3309 59.8317 56.2473 59.8234 56.1644C59.8151 56.0816 59.7902 56.0013 59.7501 55.9284C59.1167 54.5451 58.5501 53.2117 57.9167 51.9117Z" fill="#11922F"/>
<path fill-rule="evenodd" clip-rule="evenodd" d="M32.0833 44.7449L30.8667 47.2949C30.4304 47.8158 30.04 48.3734 29.7 48.9616C29.5667 48.7783 29.45 48.5949 29.4 48.5449C28.8333 48.0949 28.3167 47.6283 27.7333 47.1449C27.221 46.6797 26.7368 46.1844 26.2833 45.6616C26.1667 45.5283 25.6333 44.7949 25.1667 44.2616C25.4889 44.0028 25.7602 43.6863 25.9667 43.3283C26.0818 43.0227 26.129 42.6957 26.1051 42.37C26.0811 42.0444 25.9866 41.7278 25.828 41.4424C25.6694 41.1569 25.4506 40.9094 25.1867 40.717C24.9229 40.5246 24.6203 40.392 24.3 40.3283C23.9586 40.2807 23.611 40.3068 23.2806 40.4046C22.9501 40.5025 22.6444 40.6699 22.3839 40.8956C22.1234 41.1213 21.9143 41.4002 21.7705 41.7134C21.6266 42.0266 21.5515 42.367 21.55 42.7116C21.5906 43.0712 21.7242 43.4139 21.9375 43.7062C22.1508 43.9984 22.4366 44.23 22.7667 44.3783C22.5167 44.9449 22.2833 45.8783 22.2 46.0449L20 52.0783C19.959 52.1511 19.9352 52.2322 19.9303 52.3156C19.9254 52.399 19.9395 52.4824 19.9716 52.5595C20.0038 52.6367 20.053 52.7054 20.1157 52.7607C20.1784 52.8159 20.2528 52.8561 20.3333 52.8783C20.4 52.9086 20.472 52.9254 20.5452 52.9275C20.6184 52.9297 20.6913 52.9172 20.7596 52.8908C20.8279 52.8644 20.8902 52.8247 20.943 52.7738C20.9957 52.723 21.0378 52.6622 21.0667 52.5949L23.9333 46.9283C23.9333 46.8449 24.0333 46.4616 24.1333 46.0949C24.4167 46.5449 24.6667 47.1116 24.7333 47.1949C25.2416 47.7958 25.7991 48.3533 26.4 48.8616C26.9806 49.3598 27.587 49.8271 28.2167 50.2616L28.8333 50.7616C28.5285 51.127 28.3579 51.5858 28.35 52.0616C28.4115 52.6156 28.6749 53.1275 29.09 53.4995C29.505 53.8715 30.0426 54.0776 30.6 54.0783C31.0429 54.0793 31.4766 53.9525 31.8491 53.713C32.2216 53.4735 32.5171 53.1316 32.7 52.7283C32.8795 52.2076 32.8556 51.6383 32.6331 51.1345C32.4105 50.6307 32.0058 50.2296 31.5 50.0116C31.809 49.319 32.0707 48.6063 32.2833 47.8783L33.2333 45.3283C33.3017 45.1733 33.3069 44.9977 33.2478 44.8389C33.1886 44.6801 33.0698 44.5507 32.9167 44.4783C32.8445 44.4408 32.7656 44.418 32.6846 44.4111C32.6036 44.4042 32.522 44.4134 32.4445 44.4382C32.3671 44.463 32.2953 44.5029 32.2333 44.5555C32.1713 44.6081 32.1203 44.6725 32.0833 44.7449Z" fill="#11922F"/>
<path fill-rule="evenodd" clip-rule="evenodd" d="M54.1834 25.3782C54.2666 25.3853 54.3502 25.3853 54.4334 25.3782C53.4 26.9116 52.3334 28.4282 51.25 29.9116C50.1667 31.3949 48.7334 33.2449 47.4334 34.9116L45.3334 37.5116L45.1834 37.6282L43.75 36.3949C43.3834 36.0782 43.0334 35.7782 42.65 35.4782C41.8 34.8116 40.9834 34.1949 40.05 33.5616L39.85 33.4116C40.0957 33.1993 40.3091 32.9522 40.4834 32.6782C40.5958 32.3768 40.6408 32.0545 40.6151 31.7338C40.5895 31.4132 40.4939 31.1021 40.335 30.8224C40.176 30.5427 39.9577 30.3013 39.6954 30.1151C39.4331 29.929 39.1332 29.8026 38.8167 29.7449C38.4875 29.6954 38.1515 29.7159 37.8308 29.8052C37.5101 29.8944 37.2118 30.0502 36.9554 30.2626C36.699 30.4749 36.4903 30.739 36.3429 31.0375C36.1955 31.336 36.1128 31.6622 36.1 31.9949C36.1278 32.3451 36.245 32.6823 36.4406 32.9741C36.6361 33.266 36.9034 33.5027 37.2167 33.6616C37.1334 33.8116 37.05 33.9282 36.9667 34.0949C36.5334 35.0449 36.2 36.2949 36 36.8282L34.6834 39.7282C34.6438 39.8565 34.6511 39.9946 34.7038 40.118C34.7566 40.2414 34.8514 40.342 34.9714 40.4021C35.0915 40.4621 35.2289 40.4775 35.3593 40.4457C35.4897 40.4139 35.6045 40.3368 35.6834 40.2282L37.2167 37.3782C37.4334 36.9449 37.8 35.9782 38.2167 35.1449C38.3 34.9949 38.3667 34.8449 38.45 34.7116L38.9334 34.9949L42.2667 37.9449L44.0667 39.5116C43.6874 39.8859 43.4716 40.3953 43.4667 40.9282C43.5366 41.476 43.807 41.9784 44.2256 42.3385C44.6442 42.6986 45.1813 42.8909 45.7334 42.8782C46.165 42.8767 46.5872 42.752 46.9503 42.5187C47.3135 42.2855 47.6025 41.9534 47.7834 41.5616C47.9449 41.094 47.9402 40.5851 47.7702 40.1206C47.6002 39.656 47.2752 39.2644 46.85 39.0116L46.95 38.8782L49.0834 36.2116C50.2834 34.5449 51.4667 32.7449 52.6 30.9782C53.7334 29.2116 54.7334 27.6449 55.7334 25.8782L56 25.9616C56.5492 26.1313 57.1353 26.1415 57.69 25.991C58.2447 25.8405 58.7453 25.5355 59.1334 25.1116C59.4435 24.7985 59.6817 24.4216 59.8313 24.0071C59.981 23.5926 60.0386 23.1505 60 22.7116C59.9219 21.926 59.5676 21.1936 59 20.6449C58.449 20.0811 57.7401 19.6976 56.9667 19.5449C56.3551 19.4801 55.7368 19.5561 55.159 19.767C54.5813 19.9778 54.0594 20.318 53.6334 20.7616C53.1642 21.2046 52.8593 21.7937 52.7685 22.4325C52.6777 23.0713 52.8063 23.722 53.1334 24.2782C53.3616 24.7444 53.7283 25.1286 54.1834 25.3782ZM55 22.2949C55.2162 22.0796 55.4788 21.9165 55.7677 21.8183C56.0566 21.7201 56.3641 21.6893 56.6667 21.7282C57.0283 21.7674 57.3703 21.9124 57.65 22.1449C57.9318 22.3501 58.137 22.6433 58.2334 22.9782C58.27 23.1742 58.2668 23.3756 58.2238 23.5704C58.1809 23.7651 58.0991 23.9491 57.9834 24.1116C57.8834 24.2449 56.9667 25.5282 55.1334 24.3449C54.8757 24.1797 54.6728 23.9419 54.55 23.6616C54.4775 23.415 54.4818 23.1522 54.5621 22.9081C54.6425 22.664 54.7952 22.4501 55 22.2949Z" fill="#11922F"/>
</g>
<defs>
<clipPath id="clip0_44_1034">
<rect width="40" height="40" fill="white" transform="translate(20 19.5449)"/>
</clipPath>
</defs>
</svg>
