<svg width="80" height="70" viewBox="0 0 80 70" fill="none" xmlns="http://www.w3.org/2000/svg">
<rect x="1.345" y="1.39502" width="77.31" height="67.31" rx="15.5" stroke="#E8E8E8"/>
<g clip-path="url(#clip0_44_986)">
<path fill-rule="evenodd" clip-rule="evenodd" d="M25.625 39.7574C25.8842 39.8836 26.1634 39.9639 26.45 39.9949C27.4375 40.1324 29.5375 40.2949 31.6375 40.3824C33.6288 40.5326 35.6301 40.4866 37.6125 40.2449C37.8742 40.1464 38.0975 39.9668 38.25 39.7324C38.4469 39.3676 38.55 38.9595 38.55 38.5449C38.55 38.0074 38.625 37.4824 38.6375 36.9449C38.65 36.4074 38.6375 35.8699 38.6375 35.3324L38.3625 24.6824L38.1625 22.0324C38.1933 21.7332 38.1933 21.4316 38.1625 21.1324C38.1256 20.9004 38.0162 20.686 37.85 20.5199C37.4829 20.3173 37.0693 20.2139 36.65 20.2199C35.1 20.1074 31.7125 20.0449 29.0625 20.0449H25.1875C25.0516 20.8248 25.0221 21.6196 25.1 22.4074C25.125 26.0574 25.175 34.0574 25.2625 37.5449V39.0949C25.2696 39.2254 25.3059 39.3526 25.3686 39.4673C25.4313 39.5819 25.5189 39.6811 25.625 39.7574ZM26.65 21.0074C28.9875 21.0074 34.15 21.1574 36.325 21.3449C36.525 21.3449 36.7375 21.3449 36.9 21.4199C36.9 21.5824 37.1 24.7324 37.1 24.7324V32.2324C37.1 33.3074 37.1 34.3824 37.175 35.4449V36.9699C37.175 37.4824 37.175 37.9824 37.0875 38.4949C37.0875 38.6074 37.0875 38.8574 37.025 38.9574C35.6244 39.0832 34.2166 39.1083 32.8125 39.0324C30.8625 38.9324 28.75 38.7949 27.4 38.7949C27.1308 38.7542 26.8638 38.6999 26.6 38.6324C26.6 38.3574 26.6 37.9949 26.5375 37.5699C26.3625 34.0199 26.05 26.0324 25.9125 22.3824L25.8625 20.9824L26.65 21.0074Z" fill="#11922F"/>
<path fill-rule="evenodd" clip-rule="evenodd" d="M54.4125 30.2075C54.2572 29.9656 54.0232 29.7846 53.75 29.695C51.732 29.4333 49.6938 29.3622 47.6625 29.4825C45.5125 29.4825 43.375 29.6575 42.3625 29.795C42.0669 29.8117 41.7777 29.8883 41.5125 30.02C41.4081 30.0982 41.3241 30.2004 41.2676 30.3178C41.211 30.4353 41.1835 30.5647 41.1875 30.695V32.245V47.52V49.22C41.1715 49.3144 41.1803 49.4113 41.2132 49.5012C41.2461 49.5911 41.3019 49.6708 41.375 49.7325C41.625 50.02 43.7375 49.845 45.125 49.845C47.775 49.845 51.1625 49.845 52.7125 49.7075C53.1218 49.7093 53.5253 49.6106 53.8875 49.42C54.0576 49.2552 54.1714 49.0408 54.2125 48.8075C54.2308 48.5078 54.2308 48.2073 54.2125 47.9075L54.4 45.2575L54.675 34.6075V32.995C54.675 32.4575 54.675 31.9325 54.5875 31.395C54.6265 30.9909 54.5664 30.5833 54.4125 30.2075ZM53.2625 45.2075L53.1375 47.895C53.1375 48.0325 53.0125 48.3575 53.075 48.52C52.9125 48.52 52.7 48.5825 52.4875 48.595C50.2625 48.7825 45.15 48.8825 42.825 48.9325H42.025V47.5075C42.1125 43.8325 42.3125 35.77 42.4375 32.2575V31.195C42.7044 31.123 42.9759 31.0687 43.25 31.0325C44.625 30.945 46.8 30.895 48.8 30.8825C50.2304 30.8358 51.6623 30.8775 53.0875 31.0075C53 31.12 53.175 31.3575 53.175 31.4825C53.175 31.995 53.25 32.5075 53.2625 33.0075C53.275 33.5075 53.2625 34.02 53.2625 34.5325C53.2625 35.595 53.2625 36.67 53.2 37.745C53.2625 40.245 53.3 42.7325 53.2625 45.22V45.2075Z" fill="#11922F"/>
<path fill-rule="evenodd" clip-rule="evenodd" d="M39.0875 43.4701C39.0766 43.2023 39.0515 42.9353 39.0125 42.6701C38.9738 42.4884 38.8875 42.3201 38.7625 42.1826C38.588 42.0478 38.381 41.9616 38.1625 41.9326H36.025C32.9375 41.9326 27.725 42.2576 26.9125 42.3076C26.9125 42.3076 25.6625 42.1326 25.55 42.4951C25.55 42.5826 25.4125 44.7076 25.4125 44.8201V48.0951C25.3748 48.4107 25.3748 48.7296 25.4125 49.0451C25.4405 49.2872 25.5508 49.5122 25.725 49.6826C26.054 49.866 26.4234 49.9647 26.8 49.9701C28.1375 50.0451 31.0875 50.0451 33.75 50.0451C35.725 50.0451 37.5 49.8826 38.375 49.8201H38.875C39.0097 49.8073 39.1386 49.7589 39.2485 49.6798C39.3583 49.6007 39.4451 49.4938 39.5 49.3701C39.655 48.7194 39.6889 48.0456 39.6 47.3826C39.475 45.8826 39.15 44.0451 39.0875 43.4701ZM37.5 48.3576C35.3625 48.5076 31.025 48.7826 28.35 48.8201C27.5875 48.8201 26.9 48.9451 26.5 48.9076C26.4192 48.6276 26.3854 48.3362 26.4 48.0451L26.25 44.7826V43.2826V43.1701H26.9625C27.8875 43.1701 34.4625 43.0451 37.15 43.1701C37.3191 43.1749 37.487 43.2001 37.65 43.2451C37.65 43.3826 37.725 43.5326 37.725 43.5951C37.725 44.0951 37.975 45.5576 38.1 46.8576C38.1 47.4076 38.2125 47.9326 38.2125 48.2826L37.5 48.3576Z" fill="#11922F"/>
<path fill-rule="evenodd" clip-rule="evenodd" d="M54.725 20.5326C54.6684 20.4107 54.5786 20.3074 54.4658 20.2344C54.353 20.1614 54.2218 20.1218 54.0875 20.1201H53.5875H48.9625C46.3125 20.1201 43.3625 20.2826 42 20.4701C41.6239 20.4863 41.2582 20.5982 40.9375 20.7951C40.7732 20.9745 40.6722 21.2028 40.65 21.4451C40.6229 21.7612 40.6229 22.079 40.65 22.3951L40.8125 25.6701L40.9 27.1701C40.9 27.1701 40.9 28.0451 41.175 28.2826C41.45 28.5201 51.5375 28.1201 51.5375 28.1201C52.2476 28.1173 52.957 28.0756 53.6625 27.9951C53.8827 27.9686 54.0886 27.8722 54.25 27.7201C54.3797 27.5825 54.4628 27.4076 54.4875 27.2201C54.5042 26.9537 54.5042 26.6865 54.4875 26.4201C54.4875 25.8451 54.775 23.9951 54.8375 22.5701C54.9373 21.8903 54.899 21.1973 54.725 20.5326ZM53.475 23.0326C53.475 24.2826 53.275 25.8076 53.2375 26.3076C53.2375 26.3076 53.2375 26.5201 53.175 26.6576C53.0155 26.7041 52.8524 26.7376 52.6875 26.7576C50.0125 26.9951 43.425 27.1576 42.5 27.1826H41.8C41.795 27.1453 41.795 27.1075 41.8 27.0701V25.5701V22.3076C41.8 22.1701 41.8625 21.5576 41.9375 21.5451C42.325 21.5451 42.95 21.4701 43.7125 21.4451C46.4 21.3826 50.7375 21.4451 52.875 21.5326H53.575C53.4875 21.9076 53.45 22.4326 53.425 22.9951L53.475 23.0326Z" fill="#11922F"/>
</g>
<defs>
<clipPath id="clip0_44_986">
<rect width="30" height="30" fill="white" transform="translate(25 20.0449)"/>
</clipPath>
</defs>
</svg>
