<svg width="80" height="80" viewBox="0 0 80 80" fill="none" xmlns="http://www.w3.org/2000/svg">
<rect x="1.34497" y="1.29492" width="77.31" height="77.31" rx="15.5" stroke="#E8E8E8"/>
<g clip-path="url(#clip0_44_1008)">
<path fill-rule="evenodd" clip-rule="evenodd" d="M59.8334 29.095C59.7852 27.2648 59.5845 25.4418 59.2334 23.645C59.1338 23.0098 58.8295 22.4246 58.3667 21.9783C56.896 21.3869 55.3341 21.0542 53.75 20.995C47.9436 20.4691 42.1122 20.2688 36.2834 20.395C32.3778 20.397 28.478 20.6923 24.6167 21.2783C23.4165 21.3967 22.2762 21.8597 21.3334 22.6117C20.7078 23.8008 20.3655 25.1184 20.3334 26.4617C19.9698 31.0969 19.8919 35.7502 20.1 40.395C20.1978 45.6399 20.7217 50.8683 21.6667 56.0283C21.7948 56.7516 22.0981 57.4325 22.55 58.0117C23.4724 58.5758 24.5204 58.9023 25.6 58.9617C29.285 59.3764 32.9919 59.5657 36.7 59.5283C43.6233 59.6198 50.5447 59.2412 57.4167 58.395C57.4821 58.387 57.5451 58.3657 57.602 58.3324C57.6588 58.2992 57.7083 58.2546 57.7473 58.2016C57.7863 58.1485 57.8141 58.088 57.8289 58.0238C57.8437 57.9596 57.8452 57.8931 57.8334 57.8283C57.8128 57.6938 57.74 57.5729 57.6307 57.4918C57.5215 57.4106 57.3847 57.3759 57.25 57.395C50.4141 58.1155 43.5372 58.3717 36.6667 58.1617C33.0276 58.1322 29.3935 57.8873 25.7834 57.4283C25.0212 57.3859 24.2769 57.1813 23.6 56.8283C23.1875 55.9382 22.9553 54.9753 22.9167 53.995C22.3559 49.4653 22.0387 44.9087 21.9667 40.345C21.7921 35.7653 21.8923 31.1793 22.2667 26.6117C22.272 25.6612 22.4645 24.721 22.8334 23.845C22.9848 23.7341 23.1538 23.6496 23.3334 23.595C24.079 23.3565 24.8426 23.1781 25.6167 23.0617C30.3868 22.4591 35.1923 22.1807 40 22.2283C45.45 22.2283 50.9167 22.3617 54.3667 22.7283C55.3977 22.7767 56.4177 22.9616 57.4 23.2783C57.1834 23.4617 57.7 23.9783 57.8167 24.6283C58.2076 27.2279 58.4303 29.85 58.4834 32.4783C58.75 39.8283 58.6 49.6117 58.4834 55.8117C58.4833 55.9635 58.5425 56.1094 58.6483 56.2183C58.7541 56.3273 58.8982 56.3907 59.05 56.395C59.2019 56.3951 59.3478 56.3359 59.4567 56.2301C59.5657 56.1243 59.629 55.9801 59.6334 55.8283C59.8667 48.6283 60.2 36.6117 59.8334 29.095Z" fill="#11922F"/>
<path fill-rule="evenodd" clip-rule="evenodd" d="M27.15 33.8285C28.3337 33.9653 29.5254 34.021 30.7167 33.9951C31.3685 34.0008 32.0183 33.9224 32.65 33.7618C32.8675 33.6909 33.0628 33.5645 33.2167 33.3951C33.3832 33.1881 33.4924 32.941 33.5333 32.6785C33.6512 31.7723 33.6791 30.8568 33.6167 29.9451C33.6067 28.9997 33.5119 28.057 33.3333 27.1285C33.2642 26.881 33.1387 26.6528 32.9667 26.4618C32.4508 26.2028 31.8765 26.0822 31.3 26.1118C29.6877 26.1017 28.0772 26.2188 26.4833 26.4618C26.4007 26.479 26.3232 26.5151 26.2567 26.5671C26.1902 26.6191 26.1366 26.6857 26.1 26.7618C25.981 26.7915 25.8754 26.8602 25.7999 26.9568C25.7244 27.0534 25.6834 27.1725 25.6833 27.2951C25.5362 28.991 25.475 30.6931 25.5 32.3951C25.5143 32.8069 25.6805 33.1988 25.9667 33.4951C26.337 33.6787 26.7383 33.7917 27.15 33.8285ZM28.8167 27.4451C29.7716 27.457 30.7243 27.5406 31.6667 27.6951C31.7373 28.8607 31.7373 30.0295 31.6667 31.1951V31.9785C30.2735 32.1473 28.8689 32.203 27.4667 32.1451H26.9333C26.8023 30.5821 26.7522 29.0134 26.7833 27.4451C27.2833 27.4118 28.0667 27.4118 28.8667 27.4451H28.8167Z" fill="#11922F"/>
<path fill-rule="evenodd" clip-rule="evenodd" d="M26.1501 43.6616C26.5337 43.8567 26.9537 43.9702 27.3834 43.9949C28.5674 44.1295 29.7585 44.1907 30.9501 44.1782C31.6026 44.1792 32.2525 44.0952 32.8834 43.9283C33.0985 43.8523 33.2926 43.7267 33.4501 43.5616C33.6111 43.3513 33.7196 43.1056 33.7667 42.8449C33.8802 41.9217 33.9081 40.9899 33.8501 40.0616C33.8116 39.1357 33.6889 38.2152 33.4834 37.3116C33.4345 37.0563 33.3061 36.8229 33.1167 36.6449C32.6008 36.3859 32.0265 36.2653 31.4501 36.2949C29.8498 36.2743 28.2503 36.3801 26.6667 36.6116C26.5833 36.62 26.5036 36.6508 26.4362 36.7006C26.3687 36.7505 26.3159 36.8176 26.2834 36.8949C26.164 36.9265 26.0577 36.9952 25.9799 37.091C25.902 37.1868 25.8565 37.3049 25.8501 37.4282C25.8501 38.8616 25.6001 41.4116 25.6834 42.5449C25.6813 42.753 25.7217 42.9593 25.8019 43.1512C25.8821 43.3432 26.0006 43.5169 26.1501 43.6616ZM29.0834 37.6116C30.0267 37.6335 30.9676 37.717 31.9001 37.8616C31.978 39.0158 31.978 40.174 31.9001 41.3282V42.1116C30.5068 42.2804 29.1023 42.3361 27.7001 42.2782H27.1667C27.0001 41.2282 26.9667 38.9449 26.9334 37.5616C27.5167 37.5949 28.3334 37.5949 29.0834 37.6116Z" fill="#11922F"/>
<path fill-rule="evenodd" clip-rule="evenodd" d="M26.5 54.1616C26.8837 54.3567 27.3036 54.4702 27.7334 54.4949C28.9171 54.6317 30.1087 54.6874 31.3 54.6616C31.9463 54.6675 32.5907 54.589 33.2167 54.4282C33.4386 54.3565 33.6392 54.2305 33.8 54.0616C33.9711 53.832 34.0802 53.5622 34.1167 53.2782C34.2027 52.3469 34.2027 51.4096 34.1167 50.4782C34.0787 49.5578 33.9559 48.6428 33.75 47.7449C33.6955 47.4868 33.5682 47.2497 33.3834 47.0616C32.8659 46.8083 32.2917 46.6935 31.7167 46.7282C30.1049 46.7122 28.4943 46.8236 26.9 47.0616C26.8164 47.0762 26.7377 47.1113 26.6708 47.1636C26.604 47.2159 26.551 47.2839 26.5167 47.3616C26.3973 47.3932 26.291 47.4618 26.2132 47.5577C26.1353 47.6535 26.0898 47.7716 26.0834 47.8949C26 49.3282 25.8334 51.8782 25.9167 52.9949C25.9305 53.2186 25.9893 53.4372 26.0895 53.6377C26.1897 53.8381 26.3293 54.0163 26.5 54.1616ZM29.4334 48.1116C30.3767 48.1335 31.3176 48.217 32.25 48.3616C32.328 49.5158 32.328 50.674 32.25 51.8282V52.6116C30.8555 52.7637 29.4522 52.8194 28.05 52.7782C27.8671 52.7613 27.683 52.7613 27.5 52.7782C27.35 51.7282 27.3167 49.4449 27.2834 48.0449C27.8667 48.0782 28.6334 48.0782 29.4334 48.1116Z" fill="#11922F"/>
<path fill-rule="evenodd" clip-rule="evenodd" d="M43.0334 29.1951C43.3 29.1951 43.95 28.9951 44.15 28.9785H46.9834H48.4334C49.5 28.9785 50.5667 28.8118 51.65 28.8451L55.1834 28.9451C55.3337 28.9451 55.4778 28.8854 55.5841 28.7791C55.6903 28.6729 55.75 28.5287 55.75 28.3785C55.7501 28.2266 55.6909 28.0807 55.5851 27.9718C55.4793 27.8628 55.3352 27.7995 55.1834 27.7951L51.6667 27.1285C51.0202 27.0426 50.3689 26.998 49.7167 26.9951C48.7834 26.9951 47.85 27.0951 46.9167 27.1118C46.4913 27.1484 46.0684 27.2096 45.65 27.2951L43.9834 27.7285C43.7667 27.7285 42.5 28.2951 42.4834 28.3118C42.4667 28.3285 42.2167 29.3618 43.0334 29.1951Z" fill="#11922F"/>
<path fill-rule="evenodd" clip-rule="evenodd" d="M38.4667 35.9448C38.4667 35.9448 38.0834 36.8282 38.8001 36.8615H39.2667C40.0667 36.8615 41.7501 36.9615 43.7501 36.9948H45.6001C46.5167 36.9948 47.4501 36.9948 48.3667 36.8615C51.7001 36.5948 54.7667 36.1948 55.2667 36.1782C55.4185 36.1738 55.5627 36.1105 55.6685 36.0015C55.7743 35.8926 55.8335 35.7467 55.8334 35.5948C55.8334 35.4445 55.7737 35.3004 55.6674 35.1941C55.5611 35.0879 55.417 35.0282 55.2667 35.0282C54.7667 34.9448 51.6667 34.9448 48.3334 34.9448C47.4167 34.9448 46.4667 34.9448 45.5501 35.0782L43.7167 35.2615C41.7334 35.4782 40.0667 35.7115 39.2667 35.7948C38.4667 35.8782 38.6001 35.8448 38.4667 35.9448Z" fill="#11922F"/>
<path fill-rule="evenodd" clip-rule="evenodd" d="M55.2667 44.1785C55.417 44.1785 55.5611 44.1188 55.6674 44.0125C55.7737 43.9063 55.8334 43.7621 55.8334 43.6118C55.8335 43.46 55.7743 43.3141 55.6685 43.2051C55.5627 43.0962 55.4185 43.0328 55.2667 43.0285C54.7667 43.0285 51.6667 42.8952 48.2834 43.0285C47.3667 43.0285 46.4167 43.0285 45.5001 43.1618L43.6667 43.2785C41.6834 43.4952 40.0167 43.7118 39.2167 43.8118C37.7167 43.9618 38.4001 44.8452 38.8001 44.8618H39.2667C40.0667 44.8618 41.7501 44.9618 43.7501 44.9952H45.6001C46.5167 44.9952 47.4501 44.9952 48.3667 44.8618C51.6667 44.6118 54.7667 44.2118 55.2667 44.1785Z" fill="#11922F"/>
<path fill-rule="evenodd" clip-rule="evenodd" d="M43.4167 50.9282H42.1L41.2334 51.0616C36.8334 51.8449 39.1334 52.5449 39.2 52.5616C39.55 52.5616 40.3 52.7116 41.3167 52.7949C41.6109 52.8124 41.9058 52.8124 42.2 52.7949C42.6327 52.8272 43.0673 52.8272 43.5 52.7949C44.5334 52.6949 45.6334 52.4449 46.8334 52.2616C46.9078 52.2573 46.9807 52.2384 47.0478 52.2059C47.115 52.1734 47.175 52.128 47.2246 52.0723C47.2741 52.0165 47.3122 51.9516 47.3366 51.8811C47.361 51.8106 47.3712 51.736 47.3667 51.6616C47.3581 51.5098 47.2905 51.3673 47.1785 51.2646C47.0664 51.1619 46.9186 51.107 46.7667 51.1116C45.5667 51.0782 44.45 50.9449 43.4167 50.9282Z" fill="#11922F"/>
</g>
<defs>
<clipPath id="clip0_44_1008">
<rect width="40" height="40" fill="white" transform="translate(20 19.9448)"/>
</clipPath>
</defs>
</svg>
