<svg width="273" height="261" viewBox="0 0 273 261" fill="none" xmlns="http://www.w3.org/2000/svg">
<g clip-path="url(#clip0_211_1353)">
<path fill-rule="evenodd" clip-rule="evenodd" d="M105.452 150.737C110.847 144.15 116.169 137.869 121.194 132.807C125.479 133.464 129.835 133.633 134.171 133.31C134.568 133.298 134.958 133.211 135.32 133.055C135.682 132.899 136.009 132.677 136.283 132.401C136.556 132.125 136.769 131.801 136.911 131.447C137.053 131.094 137.121 130.718 137.11 130.341C137.101 129.968 137.014 129.602 136.853 129.265C136.692 128.927 136.461 128.624 136.174 128.374C135.886 128.125 135.548 127.934 135.18 127.812C134.812 127.691 134.421 127.642 134.031 127.668C110.596 127.901 98.4048 115.313 96.6766 100.996C100.043 102.292 103.649 102.946 107.293 102.924C108.993 103.003 110.7 102.835 112.352 102.423C114.034 102.039 115.658 101.444 117.181 100.656C121.038 98.8772 124.362 96.1914 126.836 92.8545C126.836 92.8545 126.758 92.0683 127.339 91.614C128.702 92.2705 130.116 92.8273 131.569 93.2796C135.286 94.5152 139.145 95.3325 143.07 95.7149C150.521 96.2896 158.033 95.7144 165.316 94.0117C166.935 101.378 165.539 109.081 161.414 115.555C157.29 122.028 150.745 126.784 143.114 128.854C142.237 129.04 141.469 129.547 140.975 130.263C140.48 130.98 140.299 131.851 140.47 132.688C140.682 133.527 141.228 134.252 141.992 134.713C142.756 135.173 143.68 135.333 144.571 135.16C149.544 134.186 154.279 132.302 158.515 129.614C162.442 132.909 166.046 136.538 169.282 140.457C171.168 142.652 172.949 144.857 174.741 147.161C176.533 149.465 178.118 151.789 179.713 154.211C181.606 156.981 183.318 159.861 184.839 162.834C187.357 166.157 192.691 166.324 194.247 159.919C192.78 153.515 191.864 154.796 189.236 149.3C187.794 146.32 186.082 143.468 184.118 140.776C182.18 138.036 179.902 135.529 177.333 133.31C173.374 129.932 168.991 127.033 164.282 124.677C168.637 119.794 171.783 114.045 173.483 107.861C175.183 101.677 175.393 95.2203 174.097 88.9758C173.066 78.5506 167.727 68.9825 159.253 62.3765C150.779 55.7704 139.865 52.6676 128.912 53.7504C117.121 54.4574 106.055 59.5682 98.1194 67.9715C90.1842 76.3749 86.022 87.3911 86.5378 98.6247C86.9553 105.976 89.7083 113.012 94.4323 118.801C99.1563 124.589 105.628 128.856 112.991 131.038C107.286 134.998 101.967 139.443 97.1022 144.318C92.7774 148.664 89.12 153.57 86.2404 158.888C83.371 163.805 82.1784 169.44 82.8293 175.003C83.2859 179.621 89.5268 181.584 89.9836 177.768C90.1392 170.906 92.2491 170.102 96.022 163.974C98.907 159.401 102.055 154.981 105.452 150.737ZM130.029 65.0516C137.449 64.0034 144.985 65.6269 151.163 69.6044C157.341 73.582 161.716 79.6272 163.432 86.5571C157.101 86.9343 150.753 86.5279 144.547 85.348C141.377 84.7105 138.262 83.8578 135.224 82.7966C132.23 81.765 129.32 80.5272 126.518 79.0927C121.797 76.7995 117.44 73.8909 113.569 70.4497C118.63 67.6175 124.228 65.7815 130.029 65.0516ZM107.105 74.6612C110.548 79.9312 115.075 84.4779 120.416 88.0314C120.416 88.0314 120.416 88.0314 120.981 88.4717C119.686 89.1724 118.302 89.7095 116.864 90.0695C115.19 90.3377 113.5 90.5048 111.805 90.5696L106.814 91.7577C103.522 92.9602 100.12 93.8615 96.6548 94.449C97.4587 86.8715 101.182 79.8205 107.105 74.6612Z" fill="#282828"/>
<path fill-rule="evenodd" clip-rule="evenodd" d="M180.107 182.453C180.364 181.967 180.473 181.423 180.42 180.884C180.366 180.345 180.153 179.833 179.806 179.407C176.949 175.819 171.682 181.599 165.323 183.716C159.641 185.553 153.818 186.958 147.911 187.918C132.843 190.685 117.377 190.561 102.419 187.554C94.8759 186.166 87.6044 183.707 80.8469 180.259C74.3556 177.107 68.3768 173.088 63.0899 168.321C53.5867 159.123 46.7774 147.709 43.3289 135.195C39.8804 122.681 39.9109 109.497 43.4172 96.9339C46.2377 84.2467 51.8402 72.2461 59.8562 61.7219C67.8722 51.1976 78.12 42.3882 89.9254 35.8732C97.1955 32.0379 104.852 28.92 112.776 26.5687C120.361 24.1298 128.282 22.8111 136.264 22.6588C158.187 23.3514 178.88 32.1629 193.948 47.2215C209.351 62.3008 218.868 81.9687 220.939 103C221.629 111.158 221.357 119.373 220.128 127.491C219.015 135.559 216.242 143.353 211.97 150.427C207.792 155.993 203.15 161.23 198.089 166.088C193.685 168.941 189.537 172.139 185.689 175.65C185.447 176.231 185.379 176.864 185.492 177.477C185.606 178.09 185.896 178.659 186.332 179.12C186.767 179.582 187.329 179.918 187.957 180.091C188.584 180.263 189.251 180.265 189.882 180.097C201.123 173.261 210.873 164.409 218.583 154.04C223.564 146.31 226.762 137.671 227.963 128.701C229.542 119.964 230.03 111.088 229.415 102.262C227.696 79.1614 217.666 57.4087 201.015 40.6682C184.556 23.3981 161.542 13.0844 136.979 11.9703C127.688 11.8685 118.422 13.1528 109.52 15.7767C100.843 18.3557 92.4471 21.7452 84.456 25.8954C71.1604 33.216 59.6459 43.1609 50.6942 55.0553C41.7425 66.9496 35.563 80.5149 32.5752 94.8304C28.9827 109.094 29.3904 123.972 33.7572 137.965C38.124 151.958 46.2956 164.571 57.4489 174.535C70.1187 184.503 85.0907 191.485 101.167 194.921C117.243 197.22 133.636 196.941 149.668 194.096C155.876 192.928 161.991 191.329 167.961 189.31C172.182 187.317 176.242 185.025 180.107 182.453Z" fill="#282828"/>
<path fill-rule="evenodd" clip-rule="evenodd" d="M248.568 209.522C247.006 204.798 244.218 200.536 240.462 197.126C235.753 192.729 229.799 189.448 224.612 185.495C219.425 181.543 216.233 178.782 211.96 175.632C210.71 174.69 209.372 173.859 207.962 173.15C207.327 172.622 206.517 172.324 205.671 172.307C204.825 172.289 203.997 172.555 203.329 173.056C202.661 173.558 202.196 174.264 202.014 175.053C201.832 175.843 201.945 176.665 202.333 177.378C204.11 178.446 205.741 179.717 207.19 181.165C211.173 184.542 214.988 188.332 218.661 191.74C222.334 195.148 228.686 199.283 232.982 203.72C235.346 206.166 237.036 209.134 237.902 212.363C238.349 215.189 237.863 218.087 236.511 220.655C235.159 223.224 233.008 225.337 230.354 226.704C228.008 228.605 225.157 229.846 222.122 230.286C219.088 230.727 215.993 230.349 213.19 229.195C210.791 227.794 208.62 226.07 206.741 224.077C203.588 220.455 200.702 216.63 198.103 212.626C193.725 206.311 189.348 199.996 185.767 193.305C183.888 190.117 184.408 191.157 182.622 187.86C180.837 184.564 175.808 188.534 177.196 190.977C179.202 195.443 178.911 195.67 181.113 200.017C184.09 205.875 187.264 211.614 190.645 217.333C193.116 221.87 195.916 226.235 199.025 230.397C201.463 233.481 204.441 236.14 207.83 238.259C212.483 240.516 217.732 241.443 222.951 240.927C228.169 240.411 233.136 238.474 237.256 235.35C241.718 232.677 245.207 228.752 247.235 224.122C249.263 219.492 249.729 214.388 248.568 209.522Z" fill="#282828"/>
<path fill-rule="evenodd" clip-rule="evenodd" d="M140.632 144.877C140.623 144.497 140.532 144.123 140.364 143.779C140.196 143.435 139.956 143.129 139.657 142.879C139.358 142.629 139.008 142.441 138.628 142.327C138.248 142.213 137.847 142.174 137.45 142.215C137.055 142.24 136.669 142.34 136.313 142.508C135.958 142.675 135.64 142.908 135.377 143.192C135.115 143.476 134.913 143.806 134.784 144.163C134.655 144.52 134.601 144.897 134.624 145.273C134.045 148.902 133.239 152.356 132.989 156.151C132.797 159.195 133.098 162.245 133.883 165.192C134.759 168.777 135.925 172.135 137.1 175.591C137.185 176.451 137.626 177.24 138.325 177.785C139.024 178.33 139.925 178.586 140.828 178.497C141.732 178.408 142.565 177.98 143.144 177.309C143.722 176.638 144 175.777 143.915 174.917C143.565 171.38 144.577 167.906 144.64 164.327C144.591 162.812 144.441 161.302 144.193 159.807C144.15 158.324 144.004 156.847 143.756 155.384C143.067 151.582 141.705 148.343 140.632 144.877Z" fill="#282828"/>
</g>
<defs>
<clipPath id="clip0_211_1353">
<rect width="249" height="237" fill="white" transform="translate(0.945312 24.824) rotate(-5.6462)"/>
</clipPath>
</defs>
</svg>
